<svg xmlns="http://www.w3.org/2000/svg" width="307" height="100" fill="none"><path fill-rule="evenodd" clip-rule="evenodd" d="M253.31 3.823a3.442 3.442 0 116.884 0 3.442 3.442 0 01-6.884 0zm0 8.26a3.442 3.442 0 016.884 0v9.637a3.442 3.442 0 01-6.884 0v-9.637zm-24.766 6.849a3.442 3.442 0 000 4.867l6.814 6.814a3.442 3.442 0 004.868-4.867l-6.815-6.814a3.441 3.441 0 00-4.867 0zm-5.842-.974a3.442 3.442 0 114.868-4.867 3.442 3.442 0 01-4.868 4.867zm-7.94 27.166c0 1.9 1.541 3.442 3.442 3.442h9.637a3.442 3.442 0 000-6.884h-9.637a3.442 3.442 0 00-3.442 3.442zm-4.818 3.442a3.442 3.442 0 110-6.884 3.442 3.442 0 010 6.884zm88.796-3.442c0-1.9-1.541-3.442-3.442-3.442h-9.636a3.442 3.442 0 100 6.884h9.636a3.442 3.442 0 003.442-3.442zm4.818-3.442a3.442 3.442 0 110 6.884 3.442 3.442 0 010-6.884zm-19.613-23.39a3.441 3.441 0 00-4.867 0l-6.814 6.815a3.441 3.441 0 104.867 4.867l6.814-6.814a3.442 3.442 0 000-4.867zm.973-5.84a3.441 3.441 0 114.867 4.866 3.441 3.441 0 01-4.867-4.867zm-4.074 38.179c0 1.414-.122 2.8-.356 4.147-7.049.398-13.468 3.481-16.853 6.866l-3.442 4.13-2.753 2.065v6.874h-.001v-6.874l-2.753-2.065-3.442-4.13c-3.442-3.441-10.021-6.571-17.208-6.883h-1.024a24.23 24.23 0 01-.352-4.13c0-13.306 10.786-24.092 24.092-24.092 13.305 0 24.092 10.786 24.092 24.092zm-26.846 15.83l2.754 2.754v8.26c-2.065 0-3.53 2.118-1.377 4.13l1.377 17.897-11.014-19.962 6.195-13.079h2.065zm-32.353-10.324h11.702c7.188.312 13.767 3.442 17.209 6.883l1.72 2.065h-1.031l-1.556 3.266c-3.106-3.073-4.819-4.611-7.393-6.019a12.274 12.274 0 00-1.818-.804c2.85 3.875 4.399 6.516 4.571 11.818l1.666 1.25-1.034 2.173c-.318-.442-.72-.851-1.321-1.358-5.75.305-8.962-.075-13.84-1.098 2.84 4.704 7.457 7.113 13.841 5.916l.178-.379 2.767 4.844c-15.194 3.956-25.661-6.413-25.661-28.557zm18.415 5.26c-.989-.282-1.957-.371-3.271-.441h-.912c2.636 3.233 3.928 5.56 5.042 9.637l2.065.688c-.289-4.103-1.315-6.384-2.924-9.884zm-4.584-.441h-3.705c1.677 2.02 2.667 3.575 3.641 6.195l3.442 2.065c-.911-3.42-1.842-5.42-3.378-8.26zm-4.247 0h-4.043c1.842 1.24 3.314 2.342 5.472 4.13-.331-1.626-.785-2.725-1.429-4.13zm-4.018 1.217c.182 2.885.652 5.541 1.408 7.885 2.407.223 4.113.204 6.793-.154-3.512-2.634-5.622-4.679-8.201-7.73zm1.607 8.476c.428 1.215.936 2.34 1.524 3.362 8.13-.17 8.996-.346 10.417-.633l.16-.032-3.442-2.065c-3.825.408-6.083.359-8.659-.632zm32.064-4.187l-2.754 2.753v8.26c2.065 0 3.53 2.118 1.377 4.13l-1.377 17.897 11.014-19.962-6.195-13.078h-2.065zm32.351-10.325h-11.702c-7.187.312-13.767 3.442-17.208 6.883l-1.72 2.065h1.032l1.555 3.265c3.105-3.072 4.818-4.61 7.393-6.018a12.2 12.2 0 011.818-.804c-2.85 3.875-4.4 6.516-4.571 11.818l-1.666 1.25 1.034 2.172c.318-.441.72-.85 1.32-1.357 5.751.305 8.962-.075 13.84-1.097-2.84 4.704-7.457 7.112-13.84 5.915l-.178-.377-2.767 4.842c15.194 3.956 25.66-6.413 25.66-28.557zm-18.415 5.26c.99-.282 1.957-.371 3.271-.441h.913c-2.636 3.233-3.929 5.56-5.042 9.637l-2.065.688c.289-4.103 1.314-6.384 2.923-9.884zm4.585-.441h3.705c-1.678 2.02-2.667 3.575-3.641 6.195l-3.442 2.065c.91-3.42 1.841-5.42 3.378-8.26zm4.247 0h4.043c-1.842 1.24-3.314 2.342-5.473 4.13.331-1.626.786-2.725 1.43-4.13zm4.017 1.218c-.182 2.884-.652 5.54-1.408 7.884-2.406.223-4.113.204-6.792-.154 3.512-2.634 5.621-4.678 8.2-7.73zm-1.607 8.476a20.107 20.107 0 01-1.524 3.362c-8.129-.171-8.996-.347-10.416-.634l-.16-.032 3.442-2.065c3.825.409 6.082.359 8.658-.632z" fill="#fff"></path><path d="M193.045 54.32c0 1.344-.287 2.523-.86 3.536-.655 1.156-1.542 1.734-2.662 1.734-1.094 0-1.874-.556-2.34-1.667-.197.475-.528.874-.995 1.197-.466.313-.954.47-1.465.47-1.084 0-1.927-.52-2.527-1.56-.162.404-.462.767-.901 1.09-.43.313-.861.47-1.291.47h-1.385v-4.1h1.399c.681 0 1.156-.224 1.425-.672.107-.18.233-.592.376-1.237.099-.449.282-.673.551-.673.26 0 .431.224.511.673.117.672.224 1.089.323 1.25.269.448.771.672 1.506.672.636 0 1.089-.228 1.357-.685.099-.162.22-.579.363-1.25.099-.449.274-.673.525-.673.296 0 .479.224.551.672.099.6.246 1.017.444 1.25.394.458 1.124.686 2.191.686.851 0 1.277-.34 1.277-1.022 0-.528-.426-1.281-1.277-2.258l1.492-2.057c.099-.135.198-.202.296-.202.09 0 .166.076.229.229.591 1.353.887 2.729.887 4.127zm-4.705-10.567c.116.108.116.22 0 .336l-1.547 1.533c-.107.107-.219.107-.336 0l-1.559-1.506c-.126-.126-.117-.26.027-.403l1.438-1.466c.126-.125.256-.125.39 0l1.587 1.506zm1.64 3.092c.107.108.103.22-.014.336l-1.559 1.56c-.108.107-.22.107-.336 0l-1.52-1.52-1.492 1.52c-.116.116-.233.116-.349 0l-1.587-1.546c-.125-.117-.112-.251.041-.404l1.451-1.478c.135-.135.269-.135.404 0l1.479 1.478 1.479-1.478c.125-.126.255-.126.389 0l1.614 1.532z" fill="#fff"></path><path d="M179.749 59.59h-.753a.82.82 0 01-.605-.243c.036 2.94-.91 5.45-2.837 7.529-.305.331-.533.538-.686.618-.188.108-.488.166-.9.175-.78.027-1.798-.031-3.052-.175-1.694-.188-2.541-.47-2.541-.847 0-.313.363-.614 1.089-.9 1.452-.574 2.684-1.152 3.697-1.735 2.626-1.506 3.939-2.8 3.939-3.885 0-.914-1.214-2.25-3.643-4.007l2.043-3.038c.144-.215.256-.323.336-.323.081 0 .215.108.404.323 1.371 1.604 2.415 2.407 3.132 2.407h.377v4.1zM179.353 44.56l-10.916 3.777c.259.412.708 1.165 1.344 2.258.654 1.166.981 2.282.981 3.348 0 1.533-.398 2.819-1.196 3.859-.914 1.192-2.192 1.788-3.832 1.788h-1.129v-4.1h.43c2.501 0 3.751-.265 3.751-.794 0-.367-1.143-2.218-3.428-5.552a.266.266 0 01-.027-.121c0-.225.143-.771.43-1.64.296-.87.511-1.327.645-1.372l12.45-4.275a1.88 1.88 0 01.134-.04c.242-.054.363.067.363.362v2.501z" fill="#fff"></path><path d="M165.331 59.59h-.982c-1.138 0-2.034-.368-2.689-1.103a3.452 3.452 0 01-.847-1.815c-1.12 1.344-2.352 2.375-3.697 3.092-2.375 1.273-5.4 1.91-9.074 1.91-4.876 0-7.314-1.955-7.314-5.862 0-1.237.282-2.353.847-3.348.116-.206.282-.31.497-.31.287 0 .431.216.431.646 0 .152-.023.377-.068.672a4.731 4.731 0 00-.067.659c0 1.828 1.197 2.926 3.59 3.294.645.098 1.738.148 3.28.148 5.19 0 9.147-1.376 11.871-4.128.377-.376.686-.564.928-.564.197 0 .327.116.39.35.045.178.022.394-.067.645-.108.295-.162.51-.162.645 0 .636.659.954 1.977.954h1.156v4.114zm-10.984-10.877c.107.099.103.206-.014.323l-1.573 1.573c-.116.116-.228.116-.336 0l-1.505-1.52-1.506 1.52c-.108.107-.22.107-.336 0l-1.6-1.547c-.126-.125-.112-.264.04-.416l1.452-1.466c.135-.134.269-.134.404 0l1.478 1.466 1.479-1.466c.135-.134.269-.134.404 0l1.613 1.533zM135.541 56.04c0 .645-.233 1.353-.699 2.124-.609 1.013-1.407 1.52-2.393 1.52-1.138 0-2.707-.646-4.705-1.937-.592.493-1.394.928-2.407 1.304-1.004.368-1.886.551-2.648.551h-1.157V55.49h2.138c-.878-.457-1.317-1.09-1.317-1.896 0-.484.291-1.049.873-1.694.493-.547 1.009-.959 1.547-1.237l-1.21-.47 1.425-3.51c.134-.322.309-.483.524-.483.134 0 .314.062.538.188 2.097 1.192 3.934 2.447 5.512 3.764 2.653 2.214 3.979 4.177 3.979 5.889zm-1.842.484c0-.654-1.044-1.6-3.132-2.837-.009.296-.108.659-.296 1.09-.197.456-.403.77-.618.94 1.586.87 2.733 1.304 3.441 1.304.404 0 .605-.166.605-.497zM128.9 53.74c0-.44-.318-.874-.955-1.304-.591-.412-1.116-.619-1.573-.619-.313 0-.636.081-.968.242-.403.197-.605.435-.605.713 0 .296.444.717 1.331 1.264.834.51 1.363.766 1.587.766.305 0 .578-.103.82-.31a.954.954 0 00.363-.752z" fill="#fff"></path><path d="M122.164 59.59h-1.317c-2.375 0-3.563-1.914-3.563-5.741a146 146 0 00-.336-9.64l2.447-1.72c.305-.216.506-.323.605-.323.125 0 .188.224.188.672l-.013 10.728c0 1.282.537 1.923 1.613 1.923h.376v4.1z" fill="#fff"></path><path d="M117.295 50.944c0 .35-.153.525-.457.525.197 0 .3-.018.309-.054 0-.072-.439-.22-1.318-.444-1.308-.322-2.231-.484-2.769-.484-1.506 0-2.689.426-3.549 1.278-.601.591-.901 1.133-.901 1.626 0 .35.659.632 1.976.847.807.09 1.613.184 2.42.283 1.058.152 1.815.35 2.272.591.852.448 1.277 1.192 1.277 2.232 0 1.873-.282 3.227-.847 4.06-1.667 2.456-5.162 3.684-10.486 3.684-2.214 0-4.02-.404-5.418-1.21-1.739-1.004-2.608-2.532-2.608-4.585 0-.851.206-2.048.618-3.59.502-1.882 1.058-2.823 1.667-2.823.233 0 .35.166.35.498 0 .161-.036.345-.108.551a9.005 9.005 0 00-.47 2.917c0 1.748.954 2.967 2.863 3.657 1.39.502 3.393.753 6.01.753 1.855 0 3.469-.152 4.84-.457 1.622-.358 2.433-.87 2.433-1.533 0-.34-.547-.587-1.64-.739-.636-.08-1.779-.229-3.428-.444-1.407-.188-2.34-.425-2.797-.712-.618-.395-.927-1.13-.927-2.205 0-.592.278-1.492.833-2.702.655-1.425 1.43-2.6 2.326-3.523 1.129-1.165 2.308-1.747 3.536-1.747 1.075 0 2.039.488 2.89 1.465.735.843 1.103 1.604 1.103 2.285zM91.265 53.351c0 2.062-.282 3.527-.847 4.397-.798 1.228-2.156 1.842-4.074 1.842H83.63c-1.049 0-1.865-.314-2.447-.942-.574-.627-.86-1.47-.86-2.527 0-.735.085-1.483.255-2.245.116-.511.332-.767.645-.767.377 0 .632.386.767 1.157.134.815 1.24 1.223 3.32 1.223 3.155 0 4.733-.35 4.733-1.049 0-.466-.79-1.295-2.367-2.487-1.577-1.192-2.63-1.788-3.159-1.788a.983.983 0 00-.43.121c-.153.08-.256.121-.31.121-.34 0-.51-.18-.51-.538 0-.116.031-.255.094-.416l1.25-3.16c.117-.287.327-.43.632-.43.753 0 1.909.852 3.469 2.554 1.703 1.856 2.554 3.5 2.554 4.934zM80.641 42.892l-1.29 15.635c-.063.771-.27 1.157-.619 1.157-.358 0-.596-.489-.712-1.466l-1.533-13.081 3.63-2.635c.161-.117.287-.175.376-.175.126 0 .175.188.148.565zM76.833 53.755c0 1.389-.323 2.634-.968 3.737-.815 1.398-1.976 2.097-3.482 2.097h-.995v-4.1h.834c1.775 0 2.662-.26 2.662-.78 0-.457-.798-1.42-2.393-2.89l1.922-2.958c.108-.161.233-.184.377-.067.735.6 1.286 1.483 1.653 2.648.26.825.39 1.596.39 2.313zm-3.183-8.74c.116.117.112.238-.014.364l-1.667 1.667c-.116.116-.237.116-.363 0L69.9 45.392c-.135-.125-.121-.269.04-.43l1.56-1.586c.134-.144.277-.144.43 0l1.72 1.64z" fill="#fff"></path><path d="M72.128 59.59h-.726c-.7 0-1.286-.47-1.761-1.412-.61.969-1.273 1.453-1.99 1.453-.896 0-1.636-.475-2.218-1.426-.583.924-1.26 1.385-2.03 1.385-.547 0-1.063-.09-1.547-.269 0 2.725-.743 4.8-2.231 6.225-1.488 1.434-3.599 2.151-6.332 2.151-2.151 0-3.913-.412-5.284-1.237-1.676-1.013-2.514-2.518-2.514-4.517 0-1.972.453-3.634 1.358-4.988.233-.35.48-.524.74-.524.205 0 .308.134.308.403 0 .152-.03.323-.094.511-.322.977-.484 1.846-.484 2.608 0 2.447 2.008 3.67 6.023 3.67 1.596 0 3.048-.183 4.356-.55 1.945-.547 2.918-1.39 2.918-2.528 0-.798-1.116-2.389-3.348-4.773l1.654-2.971c.125-.224.246-.336.363-.336.107 0 .228.085.363.255.735.941 1.25 1.555 1.546 1.842.654.627 1.29.941 1.909.941.529 0 .887-.228 1.075-.685l.256-1.25c.098-.449.3-.673.605-.673.296 0 .493.224.591.672.17.78.274 1.197.31 1.25.206.458.591.686 1.156.686.538 0 .905-.228 1.102-.685l.296-1.25c.108-.449.318-.673.632-.673.278 0 .461.224.551.672.144.726.242 1.143.296 1.25.215.449.61.673 1.183.673h.968v4.1zm-5.58-15.837c.108.108.104.22-.013.336l-1.546 1.533c-.108.107-.22.107-.336 0l-1.56-1.506c-.125-.126-.116-.26.027-.403l1.452-1.466c.126-.125.251-.125.377 0l1.6 1.506zm1.64 3.092c.108.108.104.22-.013.336l-1.573 1.56c-.116.107-.228.107-.336 0l-1.519-1.52-1.492 1.52c-.108.107-.22.107-.336 0l-1.6-1.546c-.126-.117-.112-.251.04-.404l1.452-1.478c.135-.135.269-.135.403 0l1.48 1.478 1.478-1.478c.126-.126.256-.126.39 0l1.627 1.532zM40.927 53.755c0 1.39-.323 2.635-.968 3.737-.816 1.399-1.977 2.098-3.482 2.098h-.995v-4.1h.834c1.774 0 2.661-.26 2.661-.78 0-.458-.797-1.421-2.393-2.891l1.923-2.958c.107-.161.233-.183.376-.067.735.6 1.286 1.483 1.654 2.649.26.824.39 1.595.39 2.312zM40.2 63.65c.116.107.112.224-.014.35l-1.68 1.666c-.117.117-.238.117-.363 0l-1.694-1.64c-.135-.134-.121-.282.04-.443l1.56-1.587c.143-.143.287-.143.43 0l1.72 1.654z" fill="#fff"></path><path d="M36.235 59.59h-1.008c-1.524 0-2.568-.866-3.133-2.596-.51 1.73-1.488 2.595-2.93 2.595h-1.157v-4.1h.74c1.434 0 2.348-.941 2.742-2.824.126-.6.35-.9.673-.9.322 0 .52.3.591.9.215 1.883 1.04 2.824 2.474 2.824h1.008v4.1zM33.09 47.717c.117.107.112.224-.013.35l-1.68 1.667c-.117.116-.238.116-.364 0l-1.694-1.64c-.134-.135-.12-.283.04-.444l1.56-1.587c.144-.143.287-.143.43 0l1.721 1.654z" fill="#fff"></path><path d="M28.76 59.59H27.75c-1.523 0-2.568-.865-3.132-2.595-.511 1.73-1.488 2.595-2.93 2.595h-1.157v-4.101h.74c1.433 0 2.348-.941 2.742-2.823.125-.6.35-.901.672-.901.323 0 .52.3.592.9.215 1.883 1.04 2.824 2.473 2.824h1.009v4.1zm-.753 4.073c.107.099.103.206-.014.323l-1.56 1.56c-.062.062-.12.093-.174.093-.054 0-.112-.031-.175-.094L24.58 64.04l-1.506 1.505c-.108.108-.22.108-.336 0l-1.587-1.532c-.134-.126-.125-.265.027-.417l1.452-1.479c.135-.134.269-.134.403 0l1.48 1.479 1.478-1.479c.135-.134.27-.134.404 0l1.613 1.546z" fill="#fff"></path><path d="M21.285 59.59h-1.318c-2.375 0-3.562-1.914-3.562-5.741 0-3.048-.112-6.26-.337-9.64l2.447-1.72c.305-.216.507-.323.605-.323.126 0 .188.224.188.672l-.013 10.728c0 1.282.538 1.923 1.613 1.923h.377v4.1z" fill="#fff"></path><path d="M16.429 55.503c0 2.42-.516 4.27-1.546 5.552-1.48 1.846-4.105 2.77-7.879 2.77-1.72 0-3.2-.359-4.436-1.076C.856 61.754 0 60.199 0 58.084c0-1.622.336-3.178 1.008-4.665.278-.61.57-.914.874-.914.296 0 .444.201.444.604 0 .368-.085.915-.256 1.64-.17.718-.255 1.26-.255 1.627 0 1.184.686 2.062 2.057 2.636 1.093.457 2.433.685 4.02.685 1.335 0 2.715-.206 4.14-.618 1.972-.574 2.958-1.358 2.958-2.353 0-.995-1.116-2.595-3.347-4.8l1.828-3.051c.134-.224.242-.337.323-.337.071 0 .197.095.376.283.583.61 1.085 1.47 1.506 2.581.502 1.327.753 2.693.753 4.1zm-6.144-7.73c.116.107.112.223-.014.349l-1.68 1.68c-.117.117-.238.117-.363 0L6.52 48.15c-.134-.126-.12-.27.04-.43l1.574-1.6c.134-.135.273-.135.416 0l1.735 1.653z" fill="#fff"></path><mask id="a" maskUnits="userSpaceOnUse" x="51.314" y="73.543" width="89" height="13" fill="#000"><path fill="#fff" d="M51.314 73.543H140.314V86.543H51.314z"></path><path fill-rule="evenodd" clip-rule="evenodd" d="M92.842 82.37h.18v.001h.424c.606 0 1.083-.261 1.43-.785.13.232.258.39.383.472.17.116.426.174.764.174.449 0 .944-.354 1.486-1.063.338.38.718.57 1.139.57.333 0 .597-.195.792-.583.157-.315.236-.67.236-1.063 0-.417-.106-.732-.32-.945-.11-.11-.187-.102-.229.028-.115.361-.203.683-.264.965.162.135.243.264.243.39 0 .138-.152.18-.458.124a1.2 1.2 0 01-.556-.291c-.11-.098-.18-.269-.208-.514-.023-.204-.074-.306-.153-.306-.041 0-.12.135-.236.403-.144.333-.294.584-.451.75a1.274 1.274 0 01-.966.403c-.449 0-.674-.178-.674-.535 0-.041.003-.102.007-.18.01-.084.014-.146.014-.188 0-.088-.028-.132-.083-.132-.079 0-.167.102-.264.306-.125.259-.266.451-.424.576-.264.204-.625.306-1.083.306h-.431c-.398 0-.66-.142-.784-.424-.06-.139-.11-.48-.146-1.021l-.348-5.091c-.009-.116-.032-.174-.069-.174-.032 0-.074.035-.125.104-.375.519-.558.806-.549.862.097.625.22 1.803.368 3.535.116 1.334.197 2.093.244 2.278.175.7.546 1.049 1.11 1.049zm35.374 0h-.04l-.037.001h-.513c-.565 0-.936-.35-1.112-1.049-.046-.185-.127-.945-.243-2.278-.148-1.732-.271-2.91-.368-3.535-.009-.056.174-.343.549-.862.051-.07.092-.104.125-.104.037 0 .06.058.069.174l.348 5.091c.037.542.085.882.145 1.021.125.282.387.424.785.424h.424c.352 0 .632-.081.84-.243.125-.097.245-.248.361-.452.093-.162.16-.243.202-.243.069 0 .132.118.187.355.091.382.395.576.911.583h.465c.459 0 .82-.102 1.084-.306.157-.125.298-.317.423-.576.098-.204.186-.306.264-.306.056 0 .084.044.084.132 0 .042-.005.104-.014.188a2.984 2.984 0 00-.007.18c0 .357.224.535.674.535.389 0 .71-.134.965-.403.157-.166.308-.417.452-.75.115-.269.194-.403.236-.403.078 0 .129.102.152.306.028.245.098.416.209.514a1.2 1.2 0 00.555.291c.306.056.459.014.459-.124 0-.126-.081-.255-.243-.39.06-.282.148-.604.264-.965.041-.13.118-.139.229-.028.213.213.319.528.319.945 0 .394-.078.748-.236 1.063-.194.388-.458.583-.792.583-.421 0-.801-.19-1.139-.57-.541.709-1.037 1.063-1.486 1.063-.338 0-.593-.058-.764-.174-.125-.083-.252-.24-.382-.472-.347.523-.824.785-1.431.785h-.417c-.639 0-1.072-.234-1.299-.701-.292.447-.711.68-1.257.7zm11.592-2.062c.005.06.007.13.007.208 0 .708-.134 1.32-.403 1.834-.028.05-.069.074-.125.07-.055-.006-.081-.045-.076-.119.051-.583.009-1.519-.125-2.806l-.222-2c-.065-.607-.1-1.186-.105-1.737 0-.088.079-.273.237-.555.245-.436.409-.653.493-.653.06 0 .081.104.062.312-.018.209-.028.46-.028.757 0 .75.095 2.313.285 4.689zm-9.585-1.687l.549-.84-.924-.633-.424.66-.833-.563-.57.896.896.618.452-.701.854.563zm-6.494 4.14c.561-.561.841-1.311.841-2.251 0-1.167-.317-2.172-.952-3.015-.055-.074-.095-.11-.118-.11-.032 0-.074.052-.125.159l-.361.764c.273.412.519.88.736 1.403.269.639.403 1.171.403 1.597 0 .158-.208.366-.625.625-.57.357-1.273.535-2.111.535-.524 0-.952-.122-1.285-.368-.38-.273-.57-.662-.57-1.167 0-.44.132-.893.396-1.361a.497.497 0 00.076-.215c0-.037-.014-.056-.041-.056-.051 0-.118.056-.202.167a3.343 3.343 0 00-.701 2.084c0 1.365.796 2.048 2.389 2.048.94 0 1.69-.28 2.25-.84zm-2.34-5.6l.639-.95-.91-.64-.66.959.931.632zm-6.467 2.703l-.292.924h-.805c-1.042 0-1.85.106-2.424.32-.283.106-.892.39-1.827.854-.551.273-1.058.41-1.521.41h-.56c-.226.008-.359.14-.399.395-.106.671-.403 1.333-.889 1.986-.579.778-1.213 1.167-1.903 1.167-.361 0-.831-.174-1.41-.52-.129-.08-.194-.149-.194-.21 0-.06.058-.09.173-.09.028 0 .07.005.125.014.269.047.512.07.73.07.398 0 .745-.09 1.041-.271.246-.148.561-.43.945-.847.176-.19.35-.42.521-.688.222-.347.333-.607.333-.778 0-.157-.213-.468-.639-.93l.438-.994c.037-.088.088-.09.153-.007.305.39.588.584.847.584h.736c.343 0 .827-.1 1.452-.299.843-.268 1.334-.419 1.473-.451.078-.019.118-.04.118-.063s-.04-.048-.118-.076a115.49 115.49 0 00-1.063-.368c-.352-.12-.646-.18-.882-.18-.408 0-.741.053-1 .16-.088.036-.151.038-.188.006-.037-.032-.035-.104.007-.215.278-.76.787-1.14 1.528-1.14.246 0 .609.1 1.091.3.727.3 1.21.488 1.451.562a6.84 6.84 0 002.007.299h.89c.041 0 .062.014.062.041 0 .01-.002.021-.007.035zm-2.271-3.355l-.639.952-.931-.632.66-.959.91.64zm-10.585 3.799c.004.06.007.13.007.208 0 .708-.135 1.32-.403 1.834-.028.05-.07.074-.125.07-.056-.006-.081-.045-.077-.119.051-.583.01-1.519-.125-2.806l-.222-2a17.52 17.52 0 01-.104-1.737c0-.088.079-.273.236-.555.245-.436.41-.653.493-.653.06 0 .081.104.063.312-.019.209-.028.46-.028.757 0 .75.095 2.313.285 4.689zm-13.12 2.452c.56-.56.84-1.31.84-2.25 0-1.167-.317-2.172-.951-3.015-.056-.074-.095-.11-.119-.11-.032 0-.074.052-.125.159l-.36.764c.272.412.518.88.735 1.403.269.639.403 1.171.403 1.597 0 .158-.208.366-.625.625-.57.357-1.273.535-2.111.535-.523 0-.952-.122-1.285-.368-.38-.273-.57-.662-.57-1.167 0-.44.132-.893.396-1.361a.5.5 0 00.076-.215c0-.037-.013-.056-.041-.056-.051 0-.118.056-.202.167a3.34 3.34 0 00-.701 2.084c0 1.365.796 2.048 2.39 2.048.94 0 1.69-.28 2.25-.84zm-2.341-5.598l.639-.952-.91-.639-.66.959.93.632zm-6.419 4.16c0 .982-.333 1.86-1 2.633-.634.736-1.24 1.104-1.82 1.104-.277 0-.59-.07-.937-.208-.347-.135-.623-.297-.827-.486a.165.165 0 01-.062-.125c0-.075.037-.112.111-.112.019 0 .04.005.063.014.287.116.585.174.895.174.547 0 1.198-.327 1.952-.98.727-.63 1.09-1.136 1.09-1.52 0-.427-.33-.984-.992-1.675l.43-.986c.051-.115.116-.139.195-.07.601.543.902 1.288.902 2.237zm-7.362.487c1.385-.486 2.077-1.215 2.077-2.188 0-.801-.393-1.201-1.18-1.201-.77 0-1.57.382-2.404 1.145-.699.667-1.178 1.133-1.438 1.397-.199.194-.493.291-.882.291-.32 0-.541-.023-.666-.07-.186-.069-.31-.212-.375-.43a2.324 2.324 0 01-.035-.284c-.01-.112-.042-.167-.097-.167-.028 0-.105.083-.23.25-.356.467-.752.701-1.187.701H65.684c0-.361-.062-.727-.187-1.097-.167-.491-.396-.737-.688-.737-.324 0-.637.267-.938.8-.282.495-.423.95-.423 1.368 0 .342.176.576.527.701.246.088.626.132 1.14.132 0 .537-.375 1.093-1.126 1.667-.713.546-1.35.82-1.91.82-.148 0-.365-.04-.653-.118-.287-.08-.493-.119-.618-.119-.078 0-.118.021-.118.063 0 .079.137.224.41.438.528.416.95.625 1.264.625.815 0 1.568-.438 2.258-1.313.592-.75.914-1.454.965-2.112H66.344v-.002c.4-.03.751-.29 1.056-.782.162.356.391.583.688.68.208.07.606.105 1.194.105a2.836 2.836 0 00-.118.694c0 .18.044.271.132.271.07 0 .146-.106.23-.32.157-.402.247-.627.27-.673 1.125-.042 2.135-.22 3.028-.535zm.813-2.084c.283.12.424.26.424.417 0 .185-.394.407-1.181.667a8.547 8.547 0 01-2.48.451 5.246 5.246 0 011.084-1.062c.556-.412 1.063-.619 1.521-.619.185 0 .396.049.632.146zm-.813-2.924l.64-.951-.91-.64-.66.96.93.631zM65.13 81.24a1.043 1.043 0 00-.237-.493c-.139-.162-.296-.243-.472-.243-.194 0-.292.12-.292.361 0 .283.234.424.702.424a.898.898 0 00.299-.049zm-5.175-2.604c.065-.246.097-.422.097-.528 0-.162-.113-.292-.34-.389a1.2 1.2 0 00-.472-.111c-.575 0-1.218.389-1.931 1.167-.713.778-1.07 1.458-1.07 2.042 0 .472.118.805.354 1 .2.162.547.275 1.042.34 1.014.13 1.521.222 1.521.278 0 .134-.354.359-1.062.674a7.571 7.571 0 01-3.098.639c-.551 0-1.03-.14-1.438-.417-.477-.324-.715-.766-.715-1.326 0-.491.222-1.193.666-2.105a.247.247 0 00.028-.111c0-.046-.016-.07-.048-.07-.047 0-.102.047-.167.14-.671.944-1.007 1.942-1.007 2.993 0 .694.25 1.222.75 1.584.444.314 1.026.472 1.743.472.875 0 1.818-.213 2.827-.64.764-.323 1.28-.62 1.55-.888.379-.385.569-.924.569-1.619 0-.254-.255-.423-.764-.507l-1.431-.229c-.51-.097-.764-.317-.764-.66 0-.287.243-.62.73-1 .513-.398 1.006-.597 1.478-.597.116 0 .278.04.487.118.208.079.32.118.333.118.023 0 .067-.123.132-.368z"></path></mask><path fill-rule="evenodd" clip-rule="evenodd" d="M92.842 82.37h.18v.001h.424c.606 0 1.083-.261 1.43-.785.13.232.258.39.383.472.17.116.426.174.764.174.449 0 .944-.354 1.486-1.063.338.38.718.57 1.139.57.333 0 .597-.195.792-.583.157-.315.236-.67.236-1.063 0-.417-.106-.732-.32-.945-.11-.11-.187-.102-.229.028-.115.361-.203.683-.264.965.162.135.243.264.243.39 0 .138-.152.18-.458.124a1.2 1.2 0 01-.556-.291c-.11-.098-.18-.269-.208-.514-.023-.204-.074-.306-.153-.306-.041 0-.12.135-.236.403-.144.333-.294.584-.451.75a1.274 1.274 0 01-.966.403c-.449 0-.674-.178-.674-.535 0-.041.003-.102.007-.18.01-.084.014-.146.014-.188 0-.088-.028-.132-.083-.132-.079 0-.167.102-.264.306-.125.259-.266.451-.424.576-.264.204-.625.306-1.083.306h-.431c-.398 0-.66-.142-.784-.424-.06-.139-.11-.48-.146-1.021l-.348-5.091c-.009-.116-.032-.174-.069-.174-.032 0-.074.035-.125.104-.375.519-.558.806-.549.862.097.625.22 1.803.368 3.535.116 1.334.197 2.093.244 2.278.175.7.546 1.049 1.11 1.049zm35.374 0h-.04l-.037.001h-.513c-.565 0-.936-.35-1.112-1.049-.046-.185-.127-.945-.243-2.278-.148-1.732-.271-2.91-.368-3.535-.009-.056.174-.343.549-.862.051-.07.092-.104.125-.104.037 0 .06.058.069.174l.348 5.091c.037.542.085.882.145 1.021.125.282.387.424.785.424h.424c.352 0 .632-.081.84-.243.125-.097.245-.248.361-.452.093-.162.16-.243.202-.243.069 0 .132.118.187.355.091.382.395.576.911.583h.465c.459 0 .82-.102 1.084-.306.157-.125.298-.317.423-.576.098-.204.186-.306.264-.306.056 0 .084.044.084.132 0 .042-.005.104-.014.188a2.984 2.984 0 00-.007.18c0 .357.224.535.674.535.389 0 .71-.134.965-.403.157-.166.308-.417.452-.75.115-.269.194-.403.236-.403.078 0 .129.102.152.306.028.245.098.416.209.514a1.2 1.2 0 00.555.291c.306.056.459.014.459-.124 0-.126-.081-.255-.243-.39.06-.282.148-.604.264-.965.041-.13.118-.139.229-.028.213.213.319.528.319.945 0 .394-.078.748-.236 1.063-.194.388-.458.583-.792.583-.421 0-.801-.19-1.139-.57-.541.709-1.037 1.063-1.486 1.063-.338 0-.593-.058-.764-.174-.125-.083-.252-.24-.382-.472-.347.523-.824.785-1.431.785h-.417c-.639 0-1.072-.234-1.299-.701-.292.447-.711.68-1.257.7zm11.592-2.062c.005.06.007.13.007.208 0 .708-.134 1.32-.403 1.834-.028.05-.069.074-.125.07-.055-.006-.081-.045-.076-.119.051-.583.009-1.519-.125-2.806l-.222-2c-.065-.607-.1-1.186-.105-1.737 0-.088.079-.273.237-.555.245-.436.409-.653.493-.653.06 0 .081.104.062.312-.018.209-.028.46-.028.757 0 .75.095 2.313.285 4.689zm-9.585-1.687l.549-.84-.924-.633-.424.66-.833-.563-.57.896.896.618.452-.701.854.563zm-6.494 4.14c.561-.561.841-1.311.841-2.251 0-1.167-.317-2.172-.952-3.015-.055-.074-.095-.11-.118-.11-.032 0-.074.052-.125.159l-.361.764c.273.412.519.88.736 1.403.269.639.403 1.171.403 1.597 0 .158-.208.366-.625.625-.57.357-1.273.535-2.111.535-.524 0-.952-.122-1.285-.368-.38-.273-.57-.662-.57-1.167 0-.44.132-.893.396-1.361a.497.497 0 00.076-.215c0-.037-.014-.056-.041-.056-.051 0-.118.056-.202.167a3.343 3.343 0 00-.701 2.084c0 1.365.796 2.048 2.389 2.048.94 0 1.69-.28 2.25-.84zm-2.34-5.6l.639-.95-.91-.64-.66.959.931.632zm-6.467 2.703l-.292.924h-.805c-1.042 0-1.85.106-2.424.32-.283.106-.892.39-1.827.854-.551.273-1.058.41-1.521.41h-.56c-.226.008-.359.14-.399.395-.106.671-.403 1.333-.889 1.986-.579.778-1.213 1.167-1.903 1.167-.361 0-.831-.174-1.41-.52-.129-.08-.194-.149-.194-.21 0-.06.058-.09.173-.09.028 0 .07.005.125.014.269.047.512.07.73.07.398 0 .745-.09 1.041-.271.246-.148.561-.43.945-.847.176-.19.35-.42.521-.688.222-.347.333-.607.333-.778 0-.157-.213-.468-.639-.93l.438-.994c.037-.088.088-.09.153-.007.305.39.588.584.847.584h.736c.343 0 .827-.1 1.452-.299.843-.268 1.334-.419 1.473-.451.078-.019.118-.04.118-.063s-.04-.048-.118-.076a115.49 115.49 0 00-1.063-.368c-.352-.12-.646-.18-.882-.18-.408 0-.741.053-1 .16-.088.036-.151.038-.188.006-.037-.032-.035-.104.007-.215.278-.76.787-1.14 1.528-1.14.246 0 .609.1 1.091.3.727.3 1.21.488 1.451.562a6.84 6.84 0 002.007.299h.89c.041 0 .062.014.062.041 0 .01-.002.021-.007.035zm-2.271-3.355l-.639.952-.931-.632.66-.959.91.64zm-10.585 3.799c.004.06.007.13.007.208 0 .708-.135 1.32-.403 1.834-.028.05-.07.074-.125.07-.056-.006-.081-.045-.077-.119.051-.583.01-1.519-.125-2.806l-.222-2a17.52 17.52 0 01-.104-1.737c0-.088.079-.273.236-.555.245-.436.41-.653.493-.653.06 0 .081.104.063.312-.019.209-.028.46-.028.757 0 .75.095 2.313.285 4.689zm-13.12 2.452c.56-.56.84-1.31.84-2.25 0-1.167-.317-2.172-.951-3.015-.056-.074-.095-.11-.119-.11-.032 0-.074.052-.125.159l-.36.764c.272.412.518.88.735 1.403.269.639.403 1.171.403 1.597 0 .158-.208.366-.625.625-.57.357-1.273.535-2.111.535-.523 0-.952-.122-1.285-.368-.38-.273-.57-.662-.57-1.167 0-.44.132-.893.396-1.361a.5.5 0 00.076-.215c0-.037-.013-.056-.041-.056-.051 0-.118.056-.202.167a3.34 3.34 0 00-.701 2.084c0 1.365.796 2.048 2.39 2.048.94 0 1.69-.28 2.25-.84zm-2.341-5.598l.639-.952-.91-.639-.66.959.93.632zm-6.419 4.16c0 .982-.333 1.86-1 2.633-.634.736-1.24 1.104-1.82 1.104-.277 0-.59-.07-.937-.208-.347-.135-.623-.297-.827-.486a.165.165 0 01-.062-.125c0-.075.037-.112.111-.112.019 0 .04.005.063.014.287.116.585.174.895.174.547 0 1.198-.327 1.952-.98.727-.63 1.09-1.136 1.09-1.52 0-.427-.33-.984-.992-1.675l.43-.986c.051-.115.116-.139.195-.07.601.543.902 1.288.902 2.237zm-7.362.487c1.385-.486 2.077-1.215 2.077-2.188 0-.801-.393-1.201-1.18-1.201-.77 0-1.57.382-2.404 1.145-.699.667-1.178 1.133-1.438 1.397-.199.194-.493.291-.882.291-.32 0-.541-.023-.666-.07-.186-.069-.31-.212-.375-.43a2.324 2.324 0 01-.035-.284c-.01-.112-.042-.167-.097-.167-.028 0-.105.083-.23.25-.356.467-.752.701-1.187.701H65.684c0-.361-.062-.727-.187-1.097-.167-.491-.396-.737-.688-.737-.324 0-.637.267-.938.8-.282.495-.423.95-.423 1.368 0 .342.176.576.527.701.246.088.626.132 1.14.132 0 .537-.375 1.093-1.126 1.667-.713.546-1.35.82-1.91.82-.148 0-.365-.04-.653-.118-.287-.08-.493-.119-.618-.119-.078 0-.118.021-.118.063 0 .079.137.224.41.438.528.416.95.625 1.264.625.815 0 1.568-.438 2.258-1.313.592-.75.914-1.454.965-2.112H66.344v-.002c.4-.03.751-.29 1.056-.782.162.356.391.583.688.68.208.07.606.105 1.194.105a2.836 2.836 0 00-.118.694c0 .18.044.271.132.271.07 0 .146-.106.23-.32.157-.402.247-.627.27-.673 1.125-.042 2.135-.22 3.028-.535zm.813-2.084c.283.12.424.26.424.417 0 .185-.394.407-1.181.667a8.547 8.547 0 01-2.48.451 5.246 5.246 0 011.084-1.062c.556-.412 1.063-.619 1.521-.619.185 0 .396.049.632.146zm-.813-2.924l.64-.951-.91-.64-.66.96.93.631zM65.13 81.24a1.043 1.043 0 00-.237-.493c-.139-.162-.296-.243-.472-.243-.194 0-.292.12-.292.361 0 .283.234.424.702.424a.898.898 0 00.299-.049zm-5.175-2.604c.065-.246.097-.422.097-.528 0-.162-.113-.292-.34-.389a1.2 1.2 0 00-.472-.111c-.575 0-1.218.389-1.931 1.167-.713.778-1.07 1.458-1.07 2.042 0 .472.118.805.354 1 .2.162.547.275 1.042.34 1.014.13 1.521.222 1.521.278 0 .134-.354.359-1.062.674a7.571 7.571 0 01-3.098.639c-.551 0-1.03-.14-1.438-.417-.477-.324-.715-.766-.715-1.326 0-.491.222-1.193.666-2.105a.247.247 0 00.028-.111c0-.046-.016-.07-.048-.07-.047 0-.102.047-.167.14-.671.944-1.007 1.942-1.007 2.993 0 .694.25 1.222.75 1.584.444.314 1.026.472 1.743.472.875 0 1.818-.213 2.827-.64.764-.323 1.28-.62 1.55-.888.379-.385.569-.924.569-1.619 0-.254-.255-.423-.764-.507l-1.431-.229c-.51-.097-.764-.317-.764-.66 0-.287.243-.62.73-1 .513-.398 1.006-.597 1.478-.597.116 0 .278.04.487.118.208.079.32.118.333.118.023 0 .067-.123.132-.368z" fill="#fff"></path><path d="M93.022 82.37h.1v-.1h-.1v.1zm0 .001h-.1v.1h.1v-.1zm1.855-.785l.087-.049-.08-.143-.09.137.083.055zm.382.472l.056-.082h-.001l-.055.082zm2.25-.889l.075-.066-.08-.09-.075.096.08.06zm1.93-.013l.09.044-.09-.044zm-.082-2.008l.07-.07-.07.07zm-.23.028l-.095-.03.095.03zm-.264.965l-.097-.02-.013.059.047.038.063-.077zm-.215.514l-.02.099h.002l.018-.099zm-.556-.291l-.066.075.066-.075zm-.208-.514l.1-.011-.1.01zm-.389.097l-.092-.04.092.04zm-.451.75l.072.069-.072-.069zm-1.633-.312l-.1-.011v.005l.1.006zm-.333-.014l.09.043-.09-.043zm-.424.576l.061.08.001-.002-.062-.078zm-1.222.306h-.1v.1h.1v-.1zm0 0h.1v-.1h-.1v.1zm-1.076-.424l-.092.04.092-.04zm-.146-1.021l-.1.007.1-.007zm-.348-5.091l.1-.007v-.001l-.1.008zm-.194-.07l-.08-.059h-.001l.081.06zm-.549.862l.1-.016h-.001l-.099.016zm.368 3.535l-.1.008.1-.008zm.244 2.278l-.097.024.097-.024zm36.445 1.049v-.1h-.001l.001.1zm.04 0v.1h.1v-.1h-.1zm-.403 0h-.1v.1h.1v-.1zm0 0h.1v-.1h-.1v.1zm-1.299-1.049l-.097.024.097-.024zm-.243-2.278l-.099.008.099-.008zm-.368-3.535l.099-.016-.099.016zm.549-.862l-.081-.059.081.06zm.194.07l.1-.007v-.001l-.1.008zm.348 5.091l-.1.007.1-.007zm.145 1.021l-.091.04.091-.04zm1.077.424h.1v-.1h-.1v.1zm0 0h-.1v.1h.1v-.1zm.972-.243l-.061-.079.061.079zm.361-.452l-.087-.05v.001l.087.05zm.389.112l-.097.022.097-.022zm.911.583l-.001.1h.001v-.1zm1.549-.306l.061.08.001-.002-.062-.078zm.423-.576l.091.043-.091-.043zm.334.014l-.1-.011v.005l.1.006zm1.632.312l.073.069-.073-.069zm.452-.75l-.092-.04.092.04zm.388-.097l.1-.011-.1.01zm.209.514l-.066.075.066-.075zm.555.291l-.019.099h.002l.017-.099zm.216-.514l-.098-.02-.013.059.047.038.064-.077zm.264-.965l-.095-.03.095.03zm.229-.028l.071-.07-.071.07zm.083 2.008l-.089-.045.089.045zm-1.931.013l.075-.066-.08-.09-.074.096.079.06zm-2.25.89l.056-.083h-.001l-.055.082zm-.382-.473l.087-.049-.08-.143-.09.137.083.055zm-1.439.785v-.1h-.1v.1h.1zm0 0v.1h.1v-.1h-.1zm-1.708-.701l.09-.044-.077-.159-.097.148.084.055zm-1.257.7l-.004-.1-.096.003v.097h.1zm11.592-2.062l.1-.008-.1.008zm-.396 2.042l.088.047.001-.001-.089-.046zm-.125.07l.009-.1-.009.1zm-.076-.119l-.1-.009v.003l.1.006zm-.125-2.806l.099-.01v-.001l-.099.011zm-.222-2l-.1.01.1-.01zm-.105-1.737h-.1v.001h.1zm.237-.555l-.088-.05.088.05zm.555-.34l.1.008-.1-.009zm-8.779 2.917l.083.055.054-.082-.081-.055-.056.082zm-.549.84l-.055.084.084.055.055-.084-.084-.054zm-.375-1.472l.056-.082-.085-.059-.055.087.084.054zm-.424.66l-.056.083.085.057.055-.086-.084-.054zm-.833-.563l.056-.083-.086-.057-.055.087.085.053zm-.57.896l-.084-.053-.052.081.079.055.057-.083zm.896.618l-.057.083.085.058.056-.086-.084-.054zm.452-.701l.055-.084-.085-.055-.054.085.084.054zm-5.64 4.702l.071.07-.071-.07zm-.111-5.265l-.08.06.08-.06zm-.243.049l-.09-.043.09.043zm-.361.764l-.09-.043-.024.051.031.047.083-.055zm.736 1.403l-.092.038.092-.038zm-.222 2.222l-.053-.084.053.084zm-3.396.167l.059-.08h-.001l-.058.08zm-.174-2.528l.087.05.001-.002-.088-.048zm-.167-.104l.08.06-.08-.06zm2.237-3.258l.083.056.054-.081-.08-.056-.057.081zm-.639.952l-.056.083.083.056.056-.083-.083-.056zm-.271-1.59l.057-.082-.082-.058-.057.083.082.056zm-.66.958l-.082-.057-.057.083.083.057.056-.083zm-5.828 4.258v.1h.074l.022-.07-.096-.03zm.292-.924l-.095-.032v.002l.095.03zm-3.521 1.243l-.035-.094h-.001l.036.094zm-1.827.855l-.044-.09.044.09zm-2.081.41v-.1h-.004l.004.1zm-.399.395l.099.016-.099-.016zm-.889 1.986l-.08-.06.08.06zm-3.313.646l-.052.086h.001l.051-.086zm.104-.285l.017-.098-.017.098zm1.771-.201l-.051-.086h-.001l.052.086zm.945-.847l-.073-.068.073.068zm.521-.688l-.084-.054.084.054zm-.306-1.709l-.091-.04-.026.06.044.048.073-.068zm.438-.993l.092.04v-.001l-.092-.039zm.153-.007l-.079.062.079-.062zm1.382.584h.1v-.1h-.1v.1zm0 0h-.1v.1h.1v-.1zm1.653-.299l.03.096-.03-.096zm1.473-.451l.022.097-.022-.097zm0-.139l.033-.094-.033.094zm-1.063-.368l-.032.095.032-.095zm-1.882-.02l-.038-.093h-.001l.039.092zm-.181-.21l.094.036-.094-.035zm2.619-.84l.038-.092-.038.092zm1.451.563l-.029.096.029-.096zm.042-2.028l-.056.082.083.057.056-.083-.083-.056zm.639-.952l.083.056.054-.081-.08-.057-.057.082zm-1.57.32l-.082-.057-.057.083.083.056.056-.082zm.66-.959l.057-.082-.082-.058-.057.084.082.056zm-9.675 4.438l.099-.008-.099.008zm-.396 2.042l.087.047.001-.001-.088-.046zm-.125.07l.008-.1-.008.1zm-.077-.119l-.099-.009-.001.003.1.006zm-.125-2.806l.1-.01v-.001l-.1.011zm-.222-2l-.099.01.099-.01zm-.104-1.737h-.1v.001h.1zm.236-.555l-.087-.05.087.05zm.556-.34l-.1-.01.1.01zM88.946 82.76l.07.07-.07-.07zm-.111-5.265l-.08.06.08-.06zm-.244.049l-.09-.043.09.043zm-.36.764l-.091-.043-.024.051.03.047.084-.055zm.735 1.403l-.092.038.092-.038zm-.222 2.222l-.053-.084.053.084zm-3.396.167l.06-.08h-.002l-.058.08zm-.174-2.528l.087.05v-.002l-.087-.048zm-.167-.104l.08.06-.08-.06zm2.237-3.258l.083.056.055-.081-.08-.056-.058.081zm-.64.952l-.055.083.083.056.056-.083-.083-.056zm-.27-1.59l.057-.082-.082-.058-.057.083.082.056zm-.66.958l-.082-.057-.057.083.083.057.056-.083zm-6.488 7.425l-.075-.066.075.066zm-2.757.896l.037-.093h-.001l-.036.093zm-.827-.486l.069-.074-.002-.001-.067.075zm.111-.223l.038-.093-.038.093zm2.848-.805l.066.075-.066-.076zm.097-3.196l-.091-.04-.027.062.046.048.073-.07zm.431-.986l-.091-.04.091.04zm.195-.07l.066-.073v-.001l-.066.075zm-6.46 2.724l-.033-.094.034.094zm-1.507-2.243l-.067-.074-.002.001.07.073zm-1.438 1.396l.07.071.002-.001-.072-.07zm-1.548.222l-.035.094.035-.094zm-.375-.43l-.097.027.097-.028zm-.035-.285l-.1.008.1-.008zm-.327.083l.08.06-.08-.06zm-1.25.701h-.1v.1h.1v-.1zm0 0h.1v-.1h-.1v.1zm-.66 0h-.1v.1h.1v-.1zm-.187-1.097l.094-.032-.094.032zm-1.626.062l.087.05-.087-.05zm.104 2.07l.034-.094-.034.094zm1.14.132h.1v-.1h-.1v.1zm-1.126 1.667l-.06-.08.06.08zm-2.563.701l.027-.096-.027.097zm-.326.383l.062-.079-.062.079zm3.521-.688l-.078-.062.078.062zm.966-2.112v-.1h-.093l-.007.093.1.007zm.354 0h.1v-.1h-.1v.1zm0 0h-.1v.1h.1v-.1zm.327 0v.1-.1zm.016 0v-.1.1zm.06 0v.1h.1v-.1h-.1zm0-.002l-.007-.1-.093.007v.093h.1zm1.056-.782l.091-.042-.078-.17-.098.159.085.053zm.688.68l.031-.094-.031.094zm1.194.105l.097.026.034-.126h-.13v.1zm.243.645l.093.037-.093-.037zm.271-.673l-.004-.1-.059.002-.026.053.09.045zm3.841-2.619l.04-.092h-.002l-.038.092zm-.757 1.084l-.031-.095.031.095zm-2.48.451l-.08-.06-.124.165.207-.005-.003-.1zm1.084-1.062l.06.08-.06-.08zm1.98-4.348l.082.055.055-.08-.08-.057-.058.082zm-.64.951l-.056.083.084.056.055-.083-.082-.056zm-.27-1.59l.057-.082-.083-.058-.057.083.083.057zm-.66.958l-.083-.057-.057.083.084.057.056-.083zm-7.002 4.577l-.076.065.076-.065zm.237.493l.032.095.082-.029-.016-.085-.099.02zm-5.418-3.521l-.04.092.04-.092zm-2.403 1.056l.074.067-.074-.067zm-.716 3.042l-.063.077.063-.077zm1.042.34l-.013.1.013-.1zm.459.952l.04.091-.04-.091zm-4.536.222l.056-.082-.056.082zm-.049-3.431l-.089-.045v.001l.09.044zm-.187-.042l.082.058-.082-.058zm-.257 4.578l-.059.08.001.001.058-.082zm4.57-.167l.04.092-.04-.092zm1.55-.89l.07.071-.07-.07zm-.195-2.125l.016-.098-.016.098zm-1.431-.229l-.019.098h.003l.016-.098zm-.035-1.66l-.061-.079.061.08zm1.966-.48l.035-.093-.035.094zm33.533 3.387h-.18v.2h.18v-.2zm.1.1h-.2.2zm.324-.1h-.424v.2h.424v-.2zm1.347-.74c-.33.496-.776.74-1.347.74v.2c.641 0 1.149-.28 1.514-.83l-.167-.11zm.521.444c-.105-.07-.223-.21-.35-.438l-.175.098c.133.236.27.41.414.507l.111-.167zm.709.157c-.33 0-.561-.057-.708-.156l-.112.165c.195.132.473.191.82.191v-.2zm1.407-1.023c-.54.706-1.01 1.023-1.407 1.023v.2c.5 0 1.022-.39 1.565-1.102l-.158-.121zm1.218.53c-.387 0-.741-.173-1.064-.536l-.15.133c.353.396.758.603 1.214.603v-.2zm.702-.528c-.183.367-.418.528-.702.528v.2c.383 0 .676-.228.881-.639l-.179-.09zm.226-1.018c0 .38-.076.718-.226 1.018l.18.09c.164-.331.246-.7.246-1.108h-.2zm-.29-.874c.188.188.29.473.29.874h.2c0-.433-.11-.777-.349-1.015l-.141.141zm-.064-.012a.124.124 0 01.02-.04c0-.003-.004.003-.014.004-.008.001-.008-.002.004.004.012.007.03.02.054.044l.141-.141a.45.45 0 00-.1-.078.207.207 0 00-.123-.027c-.1.012-.149.1-.172.172l.19.062zm-.26.955c.058-.278.145-.597.26-.955l-.19-.061c-.116.363-.205.688-.266.975l.195.041zm.245.368c0-.17-.11-.325-.28-.466l-.127.155c.154.127.207.232.207.312h.2zm-.577.224a.926.926 0 00.388.008.265.265 0 00.136-.081.228.228 0 00.053-.15h-.2c0 .015-.004.02-.006.02-.002.004-.01.012-.035.018a.751.751 0 01-.3-.012l-.036.197zm-.603-.315a1.3 1.3 0 00.602.315l.038-.197a1.102 1.102 0 01-.509-.269l-.131.151zm-.242-.578c.029.255.103.456.242.578l.131-.15c-.083-.073-.148-.214-.175-.45l-.198.022zm-.054-.217c-.014 0-.01-.013.008.021a.629.629 0 01.046.196l.198-.023a.81.81 0 00-.065-.262c-.034-.068-.094-.132-.187-.132v.2zm-.144.343c.057-.133.104-.23.14-.291a.392.392 0 01.04-.06l.002-.002a.07.07 0 01-.038.01v-.2a.132.132 0 00-.072.023.214.214 0 00-.04.036.579.579 0 00-.064.091 3.02 3.02 0 00-.152.314l.184.079zm-.47.779c.168-.179.324-.44.47-.78l-.184-.079c-.141.329-.286.567-.432.722l.145.137zm-1.039.434c.415 0 .764-.144 1.038-.434l-.145-.138c-.235.248-.53.372-.893.372v.2zm-.774-.635c0 .2.065.367.207.48.137.109.332.155.567.155V81c-.214 0-.356-.043-.443-.112-.083-.066-.13-.167-.13-.323h-.2zm.007-.186c-.004.079-.007.141-.007.186h.2c0-.038.003-.096.007-.174l-.2-.012zm.014-.182c0 .036-.004.094-.013.177l.199.022c.01-.085.014-.151.014-.199h-.2zm.017-.032s-.004 0-.01-.003a.032.032 0 01-.012-.01l.002.008c.002.008.003.02.003.037h.2a.284.284 0 00-.036-.152.169.169 0 00-.147-.08v.2zm-.174.249a.959.959 0 01.125-.207c.037-.044.054-.042.049-.042v-.2c-.084 0-.15.053-.2.111a1.15 1.15 0 00-.154.252l.18.086zm-.452.611c.174-.137.323-.343.452-.61l-.18-.088c-.121.252-.254.43-.396.542l.124.156zm-1.145.328c.472 0 .857-.105 1.144-.327l-.122-.158c-.24.186-.578.285-1.022.285v.2zm-.139 0h.139v-.2h-.139v.2zm-.1-.1h.2-.2zm-.192.1h.292v-.2h-.292v.2zm-.876-.483c.071.16.183.283.334.365.15.08.332.118.542.118v-.2a.935.935 0 01-.447-.094.547.547 0 01-.246-.27l-.183.08zm-.154-1.055c.019.272.04.495.065.669.024.17.053.302.089.385l.183-.08a1.487 1.487 0 01-.074-.334 9.224 9.224 0 01-.064-.654l-.199.014zm-.347-5.091l.347 5.09.2-.013-.348-5.091-.2.014zm.03-.08a.065.065 0 01-.044-.018c-.007-.006-.007-.01-.004-.002a.389.389 0 01.018.1l.2-.015a.565.565 0 00-.032-.16c-.015-.038-.055-.106-.138-.106v.2zm-.044.063a.354.354 0 01.052-.06c.014-.013.01-.004-.008-.004v-.2a.19.19 0 00-.12.05.545.545 0 00-.086.095l.162.119zm-.531.785c.003.02-.003.03.001.017a.347.347 0 01.019-.04c.02-.039.05-.093.096-.164.09-.14.228-.34.415-.599l-.162-.117c-.188.26-.329.463-.422.609a2.287 2.287 0 00-.106.18.535.535 0 00-.029.067.167.167 0 00-.01.08l.198-.033zm.369 3.543c-.148-1.731-.271-2.913-.369-3.542l-.198.031c.097.621.22 1.796.368 3.528l.199-.017zm.24 2.263a7.354 7.354 0 01-.093-.695 85.31 85.31 0 01-.147-1.568l-.2.018c.059.667.108 1.19.148 1.571.04.377.073.622.099.722l.194-.048zm1.015.973a.882.882 0 01-.633-.235c-.167-.157-.296-.4-.382-.738l-.194.049c.091.36.235.642.439.834.206.195.465.29.77.29v-.2zm35.334.2h.04v-.2h-.04v.2zm-.037 0h.039l-.003-.2h-.036v.2zm-.326 0h.326v-.2h-.326v.2zm-.1-.1h.2-.2zm-.087.1h.187v-.2h-.187v.2zm-1.209-1.124c.091.36.235.642.438.834.206.195.466.29.771.29v-.2a.881.881 0 01-.633-.235c-.167-.157-.297-.4-.382-.738l-.194.049zm-.245-2.294c.058.667.107 1.19.147 1.571.041.377.073.622.098.722l.194-.048a7.48 7.48 0 01-.093-.695c-.04-.379-.089-.901-.147-1.568l-.199.018zm-.368-3.529c.097.621.219 1.796.368 3.528l.199-.017c-.148-1.731-.271-2.913-.369-3.542l-.198.031zm.567-.935c-.188.26-.329.463-.422.609a2.42 2.42 0 00-.106.18.522.522 0 00-.029.067c-.005.016-.015.047-.01.08l.198-.033c.003.02-.003.03.001.017a.76.76 0 01.018-.04c.02-.039.052-.093.097-.164.09-.14.228-.34.415-.599l-.162-.117zm.206-.146a.191.191 0 00-.12.05.578.578 0 00-.086.095l.161.119a.397.397 0 01.053-.06c.014-.013.01-.004-.008-.004v-.2zm.169.266a.58.58 0 00-.031-.16c-.015-.038-.055-.106-.138-.106v.2a.063.063 0 01-.044-.017c-.007-.006-.007-.01-.004-.002a.404.404 0 01.018.1l.199-.015zm.347 5.092l-.347-5.091-.199.014.347 5.09.199-.013zm.138.988a1.498 1.498 0 01-.074-.334 9.484 9.484 0 01-.064-.654l-.199.014c.018.272.04.495.065.669.024.17.053.302.089.385l.183-.08zm.693.364a.933.933 0 01-.447-.094.545.545 0 01-.246-.27l-.183.08c.071.161.183.284.334.366.149.08.332.118.542.118v-.2zm.292 0h-.292v.2h.292v-.2zm.1.1h-.2.2zm.032-.1h-.132v.2h.132v-.2zm.779-.222c-.186.144-.442.222-.779.222v.2c.366 0 .67-.084.901-.264l-.122-.158zm.335-.422a1.41 1.41 0 01-.335.422l.122.158c.14-.108.268-.271.387-.481l-.174-.099zm.289-.294a.162.162 0 00-.096.035.348.348 0 00-.063.062 1.502 1.502 0 00-.13.197l.174.099c.045-.08.082-.134.11-.168.014-.017.024-.026.028-.03.007-.004-.002.005-.023.005v-.2zm.285.432a1.3 1.3 0 00-.098-.29c-.033-.062-.091-.142-.187-.142v.2c-.027 0-.019-.02.01.036.026.047.053.126.08.242l.195-.046zm.815.506c-.248-.003-.432-.051-.563-.135a.58.58 0 01-.253-.372l-.194.047a.779.779 0 00.339.493c.173.111.399.163.668.167l.003-.2zm.463 0h-.465v.2h.465v-.2zm1.023-.285c-.241.186-.578.285-1.023.285v.2c.473 0 .858-.105 1.145-.327l-.122-.158zm.394-.54c-.121.25-.254.428-.395.54l.124.157c.173-.137.323-.343.452-.61l-.181-.088zm.354-.363c-.083 0-.15.053-.2.111-.053.06-.104.146-.154.252l.181.086a.945.945 0 01.124-.207c.038-.044.054-.042.049-.042v-.2zm.184.232a.283.283 0 00-.037-.152.167.167 0 00-.147-.08v.2c.001 0-.004 0-.01-.003l-.012-.01.003.008c.001.008.003.02.003.037h.2zm-.015.199c.01-.085.015-.151.015-.199h-.2a1.6 1.6 0 01-.014.177l.199.022zm-.006.17c0-.04.002-.097.007-.175l-.2-.012c-.005.079-.007.142-.007.186h.2zm.574.434c-.214 0-.356-.043-.444-.112-.082-.066-.13-.167-.13-.323h-.2c0 .2.064.367.206.48.138.109.332.155.568.155V81zm.892-.372a1.171 1.171 0 01-.892.372v.2c.414 0 .763-.144 1.038-.434l-.146-.138zm.433-.72c-.142.328-.287.566-.433.72l.146.138c.169-.179.325-.44.47-.78l-.183-.079zm.328-.464a.135.135 0 00-.073.023.22.22 0 00-.04.036.554.554 0 00-.064.091 3.077 3.077 0 00-.151.314l.183.079c.058-.133.104-.23.141-.291a.343.343 0 01.04-.06c.004-.005.005-.004.001-.002a.065.065 0 01-.037.01v-.2zm.252.394a.791.791 0 00-.066-.262c-.033-.068-.093-.132-.186-.132v.2c-.015 0-.01-.013.007.021a.61.61 0 01.046.196l.199-.023zm.175.45c-.084-.072-.148-.213-.175-.45l-.199.023c.029.255.103.456.242.578l.132-.15zm.509.27a1.098 1.098 0 01-.509-.27l-.132.151c.191.166.392.274.602.315l.039-.197zm.339-.028c0 .016-.004.02-.005.022-.002.002-.011.01-.036.017a.753.753 0 01-.3-.012l-.035.197a.926.926 0 00.388.008.266.266 0 00.136-.081.228.228 0 00.052-.15h-.2zm-.207-.311c.154.127.207.232.207.312h.2c0-.17-.11-.326-.279-.467l-.128.155zm.233-1.073c-.117.363-.206.688-.267.975l.196.041c.059-.278.146-.597.261-.955l-.19-.061zm.395-.068a.454.454 0 00-.1-.078.207.207 0 00-.124-.027c-.1.012-.148.1-.171.172l.19.062a.122.122 0 01.019-.04c.001-.003-.003.003-.014.004-.008.001-.008-.002.004.004.012.007.03.02.054.044l.142-.141zm.348 1.015c0-.433-.11-.777-.348-1.015l-.142.141c.188.188.29.473.29.874h.2zm-.246 1.107c.165-.33.246-.7.246-1.107h-.2c0 .38-.075.718-.225 1.018l.179.09zm-.882.639c.384 0 .676-.228.882-.639l-.179-.09c-.184.368-.419.529-.703.529v.2zm-1.213-.603c.352.396.758.603 1.213.603v-.2c-.386 0-.741-.173-1.064-.536l-.149.133zm-1.412 1.096c.5 0 1.022-.39 1.566-1.102l-.159-.121c-.54.706-1.009 1.023-1.407 1.023v.2zm-.82-.19c.195.131.474.19.82.19v-.2c-.33 0-.561-.057-.708-.156l-.112.165zm-.413-.507c.132.236.269.41.414.507l.11-.167c-.105-.07-.223-.21-.35-.438l-.174.098zm-1.344.836c.642 0 1.149-.28 1.514-.83l-.166-.11c-.33.496-.776.74-1.348.74v.2zm-.008 0h.008v-.2h-.008v.2zm.1-.1h-.2.2zm-.509.1h.409v-.2h-.409v.2zm-1.389-.758c.122.252.301.443.537.57.235.128.52.188.852.188v-.2c-.308 0-.559-.056-.757-.163a1.05 1.05 0 01-.452-.482l-.18.087zm-1.163.757c.577-.021 1.026-.27 1.337-.746l-.168-.109c-.274.42-.662.636-1.177.655l.008.2zm.096-.1h-.2.2zm11.599-1.854c0-.08-.002-.153-.007-.216l-.2.015c.005.057.007.124.007.201h.2zm-.414 1.88c.277-.531.414-1.159.414-1.88h-.2c0 .696-.132 1.29-.391 1.787l.177.093zm-.222.123a.226.226 0 00.13-.026.238.238 0 00.091-.096l-.176-.095c-.006.012-.011.015-.012.016-.001 0-.005.002-.016.001l-.017.2zm-.168-.224c-.003.047.002.1.032.145.032.051.084.074.136.079l.017-.2c-.003 0-.001 0 .003.002a.026.026 0 01.011.01c.003.004.002.005.001.001v-.025l-.2-.012zm-.125-2.79c.135 1.287.175 2.214.125 2.787l.199.018c.052-.594.01-1.538-.125-2.825l-.199.02zm-.222-2l.222 2.001.199-.022-.222-2-.199.022zm-.105-1.746c.005.555.04 1.137.105 1.746l.199-.021a17.648 17.648 0 01-.104-1.727l-.2.002zm.249-.605c-.079.143-.14.263-.182.36a.698.698 0 00-.067.244h.2c0-.022.012-.073.051-.166.038-.088.095-.201.173-.34l-.175-.098zm.581-.704c-.06 0-.11.035-.144.065a.964.964 0 00-.122.138 4.87 4.87 0 00-.315.5l.175.099c.122-.217.222-.375.3-.479a.711.711 0 01.094-.107c.028-.025.03-.016.012-.016v-.2zm.162.421c.009-.106.01-.196-.003-.263a.242.242 0 00-.043-.1.145.145 0 00-.116-.058v.2a.053.053 0 01-.041-.02c-.004-.004 0-.002.003.017.008.038.01.104.001.206l.199.018zm-.028.748c0-.294.01-.543.028-.748l-.199-.018a8.747 8.747 0 00-.029.766h.2zm.285 4.68c-.19-2.376-.285-3.934-.285-4.68h-.2c0 .755.096 2.322.285 4.697l.2-.016zm-9.22-2.574l-.549.84.168.11.548-.84-.167-.11zm-.897-.494l.924.632.113-.165-.924-.632-.113.165zm-.283.631l.424-.66-.168-.108-.424.66.168.108zm-.973-.534l.833.563.112-.166-.833-.563-.112.166zm-.429.867l.569-.896-.169-.107-.569.896.169.107zm.868.482l-.896-.618-.114.165.896.618.114-.165zm.311-.673l-.452.701.168.109.452-.702-.168-.108zm.993.533l-.854-.563-.11.167.854.563.11-.167zm-5.808 1.973c0 .918-.273 1.641-.811 2.18l.141.14c.583-.582.87-1.36.87-2.32h-.2zm-.932-2.955c.62.824.932 1.807.932 2.955h.2c0-1.187-.323-2.213-.972-3.075l-.16.12zm-.038-.07a.075.075 0 01-.023-.004.026.026 0 01-.007-.004l.009.008a.616.616 0 01.059.07l.16-.12a.824.824 0 00-.082-.096.277.277 0 00-.044-.034.145.145 0 00-.072-.02v.2zm-.035.102a.657.657 0 01.058-.101c.008-.01.011-.011.01-.01a.06.06 0 01-.033.008v-.2a.142.142 0 00-.084.029.252.252 0 00-.05.05.757.757 0 00-.081.138l.18.086zm-.361.764l.362-.764-.181-.086-.361.764.18.086zm.739 1.322a8.367 8.367 0 00-.746-1.42l-.166.11c.269.406.511.868.727 1.386l.185-.076zm.41 1.635c0-.445-.14-.991-.411-1.636l-.184.078c.266.633.395 1.151.395 1.558h.2zm-.672.71c.211-.131.375-.252.487-.365.108-.108.185-.224.185-.345h-.2c0 .037-.027.104-.127.204a2.559 2.559 0 01-.451.337l.106.17zm-2.164.55c.852 0 1.575-.181 2.164-.55l-.106-.17c-.55.345-1.234.52-2.058.52v.2zm-1.345-.387c.355.26.806.387 1.345.387v-.2c-.508 0-.914-.118-1.226-.348l-.119.16zm-.61-1.248c0 .534.203.955.611 1.248l.117-.162c-.351-.253-.528-.61-.528-1.086h-.2zm.409-1.41c-.271.48-.409.95-.409 1.41h.2c0-.419.126-.856.383-1.312l-.174-.098zm.063-.166a.42.42 0 01-.064.167l.176.096a.588.588 0 00.088-.263h-.2zm.059.044c-.004 0-.013 0-.023-.005a.074.074 0 01-.026-.021c-.012-.016-.01-.027-.01-.018h.2a.164.164 0 00-.03-.102.137.137 0 00-.111-.054v.2zm-.122.127a.682.682 0 01.097-.108c.027-.023.034-.019.025-.019v-.2a.246.246 0 00-.153.065.843.843 0 00-.129.142l.16.12zm-.681 2.023c0-.756.227-1.429.681-2.022l-.159-.122a3.44 3.44 0 00-.722 2.145h.2zm2.289 1.95c-.784 0-1.354-.169-1.727-.489-.37-.317-.562-.797-.562-1.46h-.2c0 .702.205 1.246.632 1.612.424.364 1.049.537 1.857.537v-.2zm2.18-.812c-.538.538-1.261.812-2.18.812v.2c.961 0 1.739-.288 2.321-.87l-.141-.142zm-1.714-6.534l-.639.951.166.112.639-.952-.166-.111zm-.885-.502l.91.64.115-.165-.91-.638-.115.163zm-.52.933l.66-.958-.164-.113-.66.958.164.114zm.905.493l-.931-.632-.112.166.931.632.112-.166zm-6.719 3.739l.291-.924-.19-.06-.292.924.191.06zm-.901.07h.805v-.2h-.805v.2zm-2.39.313c.558-.207 1.353-.313 2.39-.313v-.2c-1.047 0-1.869.106-2.459.325l.069.188zm-1.817.85c.937-.463 1.541-.746 1.818-.85l-.071-.187c-.288.108-.901.395-1.835.858l.088.18zm-1.565.42c.483 0 1.005-.142 1.565-.42l-.088-.179c-.542.269-1.034.4-1.477.4v.2zm-.56 0h.56v-.2h-.56v.2zm-.3.311a.408.408 0 01.102-.234.288.288 0 01.202-.077l-.008-.2a.486.486 0 00-.335.135.6.6 0 00-.158.345l.197.031zm-.908 2.031c.494-.663.799-1.34.908-2.03l-.197-.032c-.104.653-.393 1.3-.871 1.942l.16.12zm-1.983 1.207c.733 0 1.394-.415 1.983-1.207l-.16-.12c-.568.764-1.176 1.127-1.823 1.127v.2zm-1.461-.535c.583.35 1.072.535 1.461.535v-.2c-.333 0-.784-.162-1.358-.507l-.103.172zm-.243-.294c0 .066.035.122.075.165a.802.802 0 00.167.129l.104-.171a.62.62 0 01-.125-.094c-.024-.027-.021-.036-.021-.03h-.2zm.273-.19a.385.385 0 00-.176.033.184.184 0 00-.071.063.178.178 0 00-.026.094h.2a.034.034 0 01-.005.014c-.004.007-.008.008-.006.007a.11.11 0 01.025-.007.359.359 0 01.059-.004V85zm.142.015a.921.921 0 00-.142-.016v.2c.019 0 .054.004.109.013l.033-.197zm.713.068c-.211 0-.448-.023-.713-.068l-.034.197c.273.047.522.07.747.07v-.2zm.989-.256a1.86 1.86 0 01-.989.256v.2c.413 0 .779-.094 1.094-.286l-.105-.17zm.924-.83c-.383.415-.69.689-.923.83l.103.17c.258-.155.581-.446.967-.865l-.147-.135zm.51-.674a4.757 4.757 0 01-.51.674l.146.136c.181-.195.358-.43.532-.702l-.168-.108zm.317-.724a.77.77 0 01-.075.284c-.053.123-.133.27-.242.44l.168.108c.113-.176.2-.333.258-.47a.953.953 0 00.091-.362h-.2zm-.612-.863c.211.23.368.42.47.569.052.075.088.138.111.189a.28.28 0 01.031.105h.2a.456.456 0 00-.049-.188 1.427 1.427 0 00-.128-.22 5.646 5.646 0 00-.488-.59l-.147.135zm.419-1.101l-.437.993.183.08.438-.993-.184-.08zm.324-.028a.327.327 0 00-.068-.067.168.168 0 00-.103-.032c-.089.004-.133.08-.153.128l.184.078a.106.106 0 01.008-.016l.002-.003-.01.007a.05.05 0 01-.021.005c-.017.001-.025-.006-.022-.003a.03.03 0 01.009.007c.004.005.01.01.016.019l.158-.123zm.768.545c-.21 0-.466-.16-.769-.546l-.157.124c.309.393.617.622.926.622v-.2zm.535 0h-.535v.2h.535v-.2zm.1.1h-.2.2zm.101-.1h-.201v.2h.201v-.2zm1.422-.294c-.623.199-1.095.294-1.422.294v.2c.359 0 .855-.103 1.482-.303l-.06-.19zm1.48-.453c-.144.033-.64.185-1.48.453l.06.19c.846-.269 1.331-.417 1.465-.449l-.045-.194zm.041.034c0-.025.011-.042.018-.05.006-.006.01-.007.005-.005a.298.298 0 01-.064.02l.045.195a.479.479 0 00.113-.038c.023-.012.083-.048.083-.121h-.2zm-.052.018a.36.36 0 01.068.03c.005.003.003.003-.001-.002a.069.069 0 01-.015-.046h.2a.13.13 0 00-.03-.08.188.188 0 00-.046-.04.513.513 0 00-.109-.05l-.067.188zm-1.061-.367c.379.13.733.252 1.061.367l.067-.188c-.329-.116-.684-.239-1.064-.369l-.064.19zm-.85-.176c.22 0 .503.057.85.176l.064-.19c-.357-.122-.663-.186-.914-.186v.2zm-.962.153c.243-.1.562-.153.962-.153v-.2c-.415 0-.763.054-1.038.168l.076.185zm-.292-.01c.086.074.202.047.292.01l-.077-.185a.236.236 0 01-.078.022c-.013 0-.011-.003-.005.002l-.132.15zm-.021-.326a.571.571 0 00-.039.169.191.191 0 00.06.156l.132-.15c.013.011.007.02.008 0a.383.383 0 01.027-.105l-.188-.07zm1.622-1.204c-.388 0-.723.1-.997.304-.274.205-.481.507-.625.9l.188.07c.134-.367.321-.634.556-.81.235-.174.525-.264.878-.264v-.2zm1.129.306c-.483-.2-.862-.306-1.129-.306v.2c.224 0 .572.092 1.052.29l.077-.184zm1.443.56c-.236-.073-.715-.259-1.443-.56l-.077.185c.726.3 1.215.49 1.461.566l.059-.192zm1.977.294a6.749 6.749 0 01-1.978-.295l-.058.192a6.94 6.94 0 002.036.303v-.2zm.89 0h-.89v.2h.89v-.2zm.162.141a.134.134 0 00-.06-.114.184.184 0 00-.102-.027v.2h.005a.061.061 0 01-.036-.032.056.056 0 01-.007-.027h.2zm-.012.067a.22.22 0 00.012-.067h-.2v-.004c0 .001 0 .004-.002.007l.19.064zm-2.922-2.38l.639-.951-.166-.111-.639.951.166.112zm-1.07-.605l.931.632.112-.165-.931-.632-.112.166zm.634-1.097l-.66.958.165.113.659-.958-.164-.113zm1.049.613l-.91-.639-.114.164.909.64.115-.165zm-10.535 4.089c0-.08-.003-.153-.008-.216l-.199.015c.004.057.007.124.007.201h.2zm-.415 1.88c.278-.531.415-1.159.415-1.88h-.2c0 .696-.132 1.29-.392 1.787l.177.093zm-.222.123a.226.226 0 00.13-.026.232.232 0 00.091-.096l-.175-.095c-.007.012-.012.015-.013.016-.001 0-.005.002-.016.001l-.017.2zm-.168-.224c-.002.047.003.1.032.145.033.051.084.074.136.079l.017-.2c-.003 0-.001 0 .003.002a.037.037 0 01.012.01c.002.004.002.005.001.001a.083.083 0 01-.001-.025l-.2-.012zm-.124-2.79c.134 1.287.175 2.214.125 2.787l.199.018c.052-.594.009-1.538-.125-2.825l-.199.02zm-.222-2l.222 2.001.199-.022-.223-2-.198.022zm-.105-1.746c.004.555.039 1.137.105 1.746l.198-.021a17.636 17.636 0 01-.103-1.727l-.2.002zm.249-.605c-.08.143-.141.263-.182.36a.677.677 0 00-.067.244h.2c0-.022.012-.073.051-.166.037-.088.094-.201.172-.34l-.174-.098zm.58-.704c-.06 0-.11.035-.144.065a.906.906 0 00-.121.138 4.545 4.545 0 00-.315.5l.174.099c.122-.217.222-.375.3-.479a.773.773 0 01.094-.107c.028-.025.03-.016.012-.016v-.2zm.162.421a.974.974 0 00-.003-.263.24.24 0 00-.042-.1.147.147 0 00-.117-.058v.2a.055.055 0 01-.041-.02c-.004-.004 0-.002.004.017a.839.839 0 010 .206l.199.018zm-.027.748c0-.294.009-.543.027-.748l-.199-.018a8.79 8.79 0 00-.028.766h.2zm.284 4.68c-.19-2.376-.284-3.934-.284-4.68h-.2c0 .755.095 2.322.285 4.697l.199-.016zm-12.479.21c0 .92-.273 1.642-.811 2.18l.141.142c.583-.583.87-1.36.87-2.321h-.2zm-.931-2.954c.62.824.931 1.807.931 2.955h.2c0-1.187-.323-2.213-.972-3.075l-.16.12zm-.039-.07a.07.07 0 01-.022-.004l-.008-.004.009.008a.581.581 0 01.06.07l.16-.12a.77.77 0 00-.083-.096.252.252 0 00-.044-.034.14.14 0 00-.072-.02v.2zm-.034.102a.582.582 0 01.058-.101c.007-.01.01-.011.009-.01a.056.056 0 01-.033.008v-.2a.145.145 0 00-.084.029.252.252 0 00-.05.05.763.763 0 00-.08.138l.18.086zm-.361.764l.36-.764-.18-.086-.361.764.18.086zm.738 1.322a8.416 8.416 0 00-.745-1.42l-.167.11c.27.406.512.868.727 1.386l.185-.076zm.41 1.635c0-.445-.14-.991-.41-1.636l-.185.078c.267.633.395 1.151.395 1.558h.2zm-.672.71c.211-.131.375-.252.487-.365.108-.108.185-.224.185-.345h-.2c0 .037-.027.104-.127.204a2.59 2.59 0 01-.45.337l.105.17zm-2.164.55c.852 0 1.575-.181 2.164-.55l-.106-.17c-.55.345-1.234.52-2.058.52v.2zm-1.344-.387c.354.26.805.387 1.344.387v-.2c-.508 0-.914-.118-1.226-.348l-.118.16zm-.61-1.248c0 .534.202.955.61 1.248l.117-.162c-.351-.253-.528-.61-.528-1.086h-.2zm.408-1.41c-.27.48-.409.95-.409 1.41h.2c0-.419.126-.856.383-1.312l-.174-.098zm.063-.166a.423.423 0 01-.064.167l.176.096a.59.59 0 00.088-.263h-.2zm.059.044c-.004 0-.013 0-.023-.005a.067.067 0 01-.026-.021c-.012-.016-.01-.027-.01-.018h.2a.167.167 0 00-.03-.102.136.136 0 00-.111-.054v.2zm-.122.127a.644.644 0 01.097-.108c.027-.023.034-.019.025-.019v-.2a.245.245 0 00-.153.065.839.839 0 00-.129.142l.16.12zm-.681 2.023c0-.756.227-1.429.68-2.022l-.158-.122a3.438 3.438 0 00-.722 2.145h.2zm2.29 1.95c-.785 0-1.355-.169-1.728-.489-.37-.317-.562-.797-.562-1.46h-.2c0 .702.206 1.246.632 1.612.424.364 1.049.537 1.857.537v-.2zm2.179-.812c-.538.538-1.261.812-2.18.812v.2c.961 0 1.739-.288 2.321-.87l-.141-.142zm-1.714-6.534l-.64.951.167.112.639-.952-.166-.111zm-.884-.502l.91.64.114-.165-.91-.638-.114.163zm-.52.933l.66-.958-.165-.113-.66.958.165.114zm.904.493l-.93-.632-.113.166.93.632.113-.166zm-7.399 6.941c.682-.79 1.025-1.691 1.025-2.698h-.2c0 .957-.325 1.811-.976 2.567l.151.131zm-1.895 1.139c.622 0 1.254-.395 1.895-1.139l-.151-.13c-.628.728-1.21 1.069-1.744 1.069v.2zm-.975-.216c.355.143.68.216.975.216v-.2c-.262 0-.562-.065-.901-.201l-.074.186zm-.858-.505c.216.2.503.368.859.506l.072-.187c-.34-.13-.603-.287-.794-.466l-.137.147zm-.094-.198c0 .08.038.147.096.2l.133-.15c-.025-.023-.03-.039-.03-.05h-.2zm.211-.212a.212.212 0 00-.154.057.212.212 0 00-.057.155h.2c0-.011.001-.016.002-.017l-.004.004-.004.003a.061.061 0 01.017-.002v-.2zm.1.021a.268.268 0 00-.1-.02v.2c.002 0 .01 0 .025.006l.075-.186zm.858.167c-.297 0-.583-.056-.858-.166l-.075.185c.3.12.61.18.933.18v-.2zm1.887-.955c-.75.649-1.377.955-1.886.955v.2c.583 0 1.257-.347 2.017-1.004l-.131-.151zm1.056-1.446c0 .162-.078.365-.254.61s-.442.524-.802.836l.13.151c.367-.317.646-.607.834-.87.187-.26.292-.504.292-.727h-.2zm-.966-1.604c.328.342.571.647.731.918.161.27.235.498.235.686h.2c0-.238-.092-.502-.263-.789a5.458 5.458 0 00-.758-.954l-.145.139zm.411-1.096l-.43.987.183.08.43-.987-.183-.08zm.353-.104c-.051-.045-.125-.084-.208-.054-.073.026-.116.094-.144.158l.183.08a.201.201 0 01.026-.045c.006-.008.008-.007.003-.005a.027.027 0 01-.01.002h-.004c.001 0 .008.002.021.014l.133-.15zm.937 2.311c0-.972-.31-1.746-.937-2.31l-.133.148c.577.52.87 1.236.87 2.162h.2zm-5.486-1.7c0 .459-.162.86-.492 1.207-.33.349-.834.646-1.518.886l.067.188c.7-.246 1.236-.557 1.597-.937.363-.382.546-.832.546-1.345h-.2zm-1.08-1.103c.377 0 .642.096.814.271.172.175.266.445.266.831h.2c0-.415-.102-.745-.324-.971-.222-.226-.547-.33-.957-.33v.2zm-2.336 1.12c.823-.755 1.601-1.12 2.335-1.12v-.2c-.803 0-1.627.4-2.47 1.173l.135.147zm-1.434 1.393c.258-.263.736-.727 1.435-1.394l-.138-.145c-.699.667-1.18 1.133-1.44 1.398l.143.14zm-.954.321c.405 0 .728-.1.952-.32l-.14-.143c-.173.17-.438.263-.812.263v.2zm-.701-.075c.143.053.382.075.701.075v-.2c-.32 0-.525-.024-.632-.063l-.07.188zm-.436-.496c.072.242.216.413.436.496l.07-.188c-.151-.056-.257-.173-.315-.365l-.191.057zm-.039-.305c.007.08.014.144.02.193a.832.832 0 00.018.11l.193-.054a.735.735 0 01-.013-.08 5.9 5.9 0 01-.019-.186l-.199.017zm.003-.075a.031.031 0 01-.016-.005c-.006-.004-.007-.006-.005-.003a.22.22 0 01.018.083l.2-.017a.4.4 0 00-.045-.167.173.173 0 00-.152-.091v.2zm-.15.21c.062-.083.11-.142.145-.18.018-.02.03-.03.037-.037.004-.002.004-.002.001 0a.072.072 0 01-.033.007v-.2a.128.128 0 00-.06.015.212.212 0 00-.033.022.558.558 0 00-.06.058c-.04.045-.093.11-.157.195l.16.12zm-1.267.741c.476 0 .899-.257 1.267-.74l-.16-.122c-.344.452-.713.662-1.107.662v.2zm-.063 0h.063v-.2h-.063v.2zm-.1-.1h.2-.2zm-.56.1h.66v-.2h-.66v.2zm-.282-1.165c.122.36.182.716.182 1.065h.2c0-.373-.064-.75-.193-1.13l-.19.065zm-.593-.669c.221 0 .428.184.593.669l.19-.064c-.17-.497-.42-.804-.783-.804v.2zm-.85.748c.298-.528.585-.748.85-.748v-.2c-.383 0-.721.313-1.025.85l.174.099zm-.411 1.32c0-.395.133-.834.41-1.32l-.173-.098c-.289.505-.437.978-.437 1.418h.2zm.461.607a.725.725 0 01-.35-.235.599.599 0 01-.111-.372h-.2c0 .189.049.355.152.492a.922.922 0 00.442.303l.067-.188zm1.106.126c-.512 0-.877-.044-1.106-.126l-.067.188c.262.094.656.138 1.173.138v-.2zm-1.065 1.846c.757-.579 1.165-1.16 1.165-1.746h-.2c0 .489-.343 1.019-1.086 1.588l.121.158zm-1.97.84c.591 0 1.25-.287 1.97-.84l-.121-.158c-.706.54-1.321.799-1.85.799v.2zm-.68-.121c.289.08.517.122.68.122v-.2c-.135 0-.342-.037-.627-.115l-.053.193zm-.592-.115c.11 0 .305.036.592.115l.053-.193c-.287-.079-.505-.122-.645-.122v.2zm-.018-.037a.05.05 0 01-.008.026.044.044 0 01-.015.016l.007-.002a.207.207 0 01.034-.003v-.2a.29.29 0 00-.135.028.15.15 0 00-.083.135h.2zm.371.359a2.679 2.679 0 01-.295-.259.524.524 0 01-.065-.08c-.013-.022-.01-.027-.01-.02h-.2c0 .046.018.09.04.124a.715.715 0 00.089.113c.073.078.18.172.319.28l.122-.158zm1.203.604c-.136 0-.305-.046-.508-.146a4.073 4.073 0 01-.694-.458l-.124.157c.267.211.51.372.73.48.218.108.418.167.596.167v-.2zm2.179-1.275c-.679.86-1.405 1.275-2.179 1.275v.2c.856 0 1.635-.461 2.336-1.351l-.157-.124zm.944-2.057c-.049.63-.358 1.316-.944 2.057l.157.124c.6-.76.934-1.481.987-2.166l-.2-.015zm.454-.093h-.354v.2h.354v-.2zm.1.1h-.2.2zm.227-.1h-.327v.2h.327v-.2zm.015 0h-.016l.002.2h.016l-.002-.2zm.061 0h-.06v.2h.06v-.2zm-.1.098v.002h.2v-.002h-.2zm1.07-.835c-.295.478-.623.71-.977.735l.014.2c.444-.033.82-.323 1.134-.83l-.17-.105zm.805.638c-.264-.086-.474-.289-.628-.627l-.182.083c.17.375.418.626.747.734l.063-.19zm1.163.1c-.59 0-.972-.036-1.163-.1l-.063.19c.226.076.64.11 1.226.11v-.2zm-.018.794c0-.158.037-.38.115-.668l-.193-.052c-.08.294-.122.536-.122.72h.2zm.032.171h-.001c0 .001-.003 0-.008-.011a.394.394 0 01-.023-.16h-.2c0 .095.011.181.043.247.017.034.04.066.075.09a.2.2 0 00.114.034v-.2zm.136-.256c-.04.104-.077.175-.108.218-.035.049-.045.038-.028.038v.2c.087 0 .15-.064.19-.122.046-.063.09-.152.132-.261l-.186-.073zm.275-.682c-.026.052-.119.283-.275.682l.186.073c.16-.406.247-.624.268-.666l-.18-.089zm3.084-.584c-.882.31-1.882.487-2.998.529l.007.2c1.133-.042 2.153-.222 3.058-.54l-.067-.19zm1.37-1.573a.409.409 0 00-.136-.293 1.125 1.125 0 00-.349-.216l-.078.184a.935.935 0 01.287.174c.056.056.076.106.076.151h.2zm-1.25.762c.396-.13.698-.253.904-.37.102-.057.185-.116.244-.177a.315.315 0 00.102-.215h-.2c0 .01-.005.035-.046.076a.89.89 0 01-.199.142c-.188.107-.476.225-.867.354l.062.19zm-2.508.456a8.644 8.644 0 002.508-.456l-.062-.19a8.446 8.446 0 01-2.45.446l.004.2zm1.021-1.243c-.433.32-.8.681-1.103 1.083l.16.12c.29-.385.644-.732 1.062-1.042l-.119-.16zm1.581-.638c-.488 0-1.016.22-1.58.638l.118.16c.547-.405 1.033-.598 1.462-.598v-.2zm.67.154a1.787 1.787 0 00-.67-.154v.2c.168 0 .366.045.594.139l.076-.185zm-.294-3.84l-.64.952.166.112.64-.952-.166-.111zm-.885-.5l.91.638.115-.163-.91-.64-.115.165zm-.52.933l.66-.959-.165-.113-.66.958.165.114zm.905.492l-.931-.632-.112.166.93.632.113-.166zm-8.064 4.094c.108.125.18.273.213.447l.197-.039a1.143 1.143 0 00-.26-.54l-.15.132zm-.397-.209c.14 0 .272.063.396.208l.152-.13c-.153-.179-.337-.278-.548-.278v.2zm-.192.261c0-.11.023-.173.051-.208.025-.03.066-.053.141-.053v-.2a.363.363 0 00-.296.127.522.522 0 00-.096.334h.2zm.602.324c-.227 0-.38-.035-.475-.092a.248.248 0 01-.127-.232h-.2c0 .175.076.314.224.404.14.084.337.12.578.12v-.2zm.266-.043a.799.799 0 01-.266.043v.2a.999.999 0 00.332-.054l-.067-.19zm-5.145-3.038c0 .092-.029.257-.094.502l.194.051c.065-.245.1-.432.1-.553h-.2zm-.28-.297c.213.09.28.194.28.297h.2c0-.222-.159-.377-.4-.48l-.08.183zm-.432-.103c.126 0 .27.033.432.103l.08-.184a1.3 1.3 0 00-.512-.12v.2zm-1.857 1.134c.708-.773 1.327-1.134 1.857-1.134v-.2c-.619 0-1.287.416-2.005 1.2l.148.134zm-1.044 1.975c0-.545.335-1.202 1.044-1.975l-.148-.135c-.718.783-1.096 1.488-1.096 2.11h.2zm.318.923c-.203-.167-.318-.464-.318-.923h-.2c0 .486.121.855.39 1.077l.128-.154zm.991.318c-.491-.064-.815-.175-.991-.319l-.127.156c.222.18.593.296 1.092.361l.026-.198zm1.608.377a.115.115 0 00-.037-.083.177.177 0 00-.04-.028.533.533 0 00-.09-.033 3.154 3.154 0 00-.295-.065 23.663 23.663 0 00-1.146-.168l-.026.198c.507.065.885.12 1.136.166.126.023.217.043.275.06.03.01.047.016.054.02.004.002 0 0-.005-.005a.085.085 0 01-.026-.062h.2zm-1.122.765c.356-.158.627-.295.81-.411.092-.058.165-.113.217-.166.048-.049.095-.113.095-.188h-.2c0-.008.003.007-.037.047a1.062 1.062 0 01-.182.138c-.17.108-.431.24-.784.397l.081.183zm-3.138.648a7.672 7.672 0 003.138-.648l-.08-.183c-.95.42-1.97.63-3.058.63v.2zm-1.494-.434c.426.29.925.434 1.494.434v-.2c-.533 0-.993-.134-1.382-.4l-.112.166zm-.76-1.41c0 .595.257 1.068.76 1.41l.112-.166c-.45-.306-.671-.718-.671-1.243h-.2zm.678-2.148c-.446.914-.677 1.633-.677 2.148h.2c0-.466.213-1.15.656-2.06l-.18-.088zm.017-.067c0 .02-.005.041-.017.066l.179.09a.346.346 0 00.038-.156h-.2zm.052.03c-.004 0-.012 0-.022-.005a.061.061 0 01-.024-.02.038.038 0 01-.006-.013v.008h.2a.188.188 0 00-.03-.11.14.14 0 00-.118-.06v.2zm-.085.097a.445.445 0 01.072-.085c.02-.016.023-.012.013-.012v-.2a.222.222 0 00-.14.058.638.638 0 00-.109.124l.164.115zm-.99 2.936c0-1.028.329-2.006.99-2.936l-.163-.116c-.683.96-1.026 1.978-1.026 3.052h.2zm.71 1.502c-.471-.34-.71-.835-.71-1.502h-.2c0 .722.263 1.282.792 1.665l.117-.163zm1.684.454c-.703 0-1.262-.154-1.685-.454l-.116.163c.466.33 1.07.49 1.801.49v-.2zm2.788-.631c-1 .422-1.929.63-2.788.63v.2c.892 0 1.847-.216 2.866-.646l-.078-.184zm1.517-.868c-.254.254-.754.544-1.517.868l.078.184c.765-.325 1.297-.627 1.58-.91l-.14-.142zm.54-1.548c0 .676-.184 1.188-.54 1.548l.142.141c.403-.408.599-.976.599-1.689h-.2zm-.68-.408c.25.04.424.1.534.174.106.07.147.148.147.234h.2c0-.168-.087-.302-.236-.4-.145-.097-.352-.163-.612-.205l-.033.197zm-1.43-.23l1.43.23.032-.197c-.69-.112-1.166-.188-1.43-.23l-.032.198zm-.848-.758c0 .2.076.369.225.498.146.126.357.21.62.26l.038-.196c-.246-.047-.418-.121-.527-.215a.433.433 0 01-.156-.347h-.2zm.767-1.079a2.933 2.933 0 00-.566.555c-.129.177-.201.352-.201.524h.2c0-.115.049-.25.163-.406.114-.157.289-.328.528-.515l-.123-.158zm1.541-.618c-.501 0-1.015.211-1.54.618l.122.158c.503-.39.975-.576 1.418-.576v-.2zm.522.124c-.211-.08-.387-.124-.522-.124v.2c.098 0 .246.034.451.111l.071-.187zm.298.112c.013 0 .022.003.015.001a12.85 12.85 0 01-.313-.113l-.07.187a12.836 12.836 0 00.333.12c.004 0 .019.005.035.005v-.2zm.035-.294c-.032.122-.058.211-.079.268a.433.433 0 01-.022.055l.002-.003c.002-.001.024-.026.064-.026v.2a.114.114 0 00.083-.038.191.191 0 00.026-.037.62.62 0 00.036-.083c.023-.066.051-.161.084-.285l-.194-.05z" fill="#fff" mask="url(#a)"></path><path d="M126.077 13.336l-1.291 15.636c-.063.77-.269 1.156-.618 1.156-.359 0-.596-.488-.713-1.465l-1.533-13.082 3.63-2.635c.162-.116.287-.174.377-.174.125 0 .174.188.148.564zM122.27 24.199c0 1.39-.323 2.635-.968 3.737-.816 1.399-1.977 2.098-3.482 2.098h-.995v-4.1h.833c1.775 0 2.662-.26 2.662-.78 0-.458-.797-1.421-2.393-2.891l1.923-2.958c.107-.161.233-.183.376-.067.735.6 1.286 1.483 1.654 2.649.26.824.39 1.595.39 2.312zm-3.184-8.739c.117.117.112.238-.013.363l-1.667 1.667c-.117.117-.238.117-.363 0l-1.708-1.653c-.134-.126-.121-.27.041-.43l1.559-1.587c.134-.143.278-.143.43 0l1.721 1.64z" fill="#fff"></path><path d="M117.577 30.034h-2.447c-1.927 0-3.195-.534-3.805-1.6-.367-.637-.551-1.766-.551-3.388-1.586 1.416-2.841 2.42-3.764 3.011-2.062 1.318-4.042 1.977-5.942 1.977h-2.205v-4.1h1.68c1.613 0 3.218-.274 4.813-.82.914-.315 2.192-.88 3.832-1.695-3.576-.986-5.736-1.479-6.48-1.479a1.73 1.73 0 00-1.089.363c-.072.054-.287.283-.646.686-.233.26-.457.39-.672.39-.287 0-.43-.18-.43-.538 0-.125.027-.269.08-.43.225-.672.633-1.398 1.224-2.178.887-1.165 1.793-1.748 2.716-1.748.636 0 1.523.17 2.662.511 1.604.475 2.72.78 3.347.914a64.03 64.03 0 005.956.955c.439.045.659.157.659.336 0 .107-.067.278-.202.51l-1.425 2.475a23.373 23.373 0 00-1.707-.095c-.771 0-1.156.206-1.156.619 0 .815 1.012 1.223 3.038 1.223h2.514v4.1zm-7.381 3.63c.117.107.112.224-.013.35l-1.681 1.68c-.116.116-.237.116-.363 0l-1.707-1.654c-.135-.134-.121-.282.04-.444l1.56-1.586c.134-.143.277-.143.43 0l1.734 1.654z" fill="#fff"></path><path d="M99.602 30.034h-.995c-.672 0-1.241-.206-1.707-.619-.278-.25-.614-.677-1.009-1.277-.699 1.586-1.582 2.38-2.648 2.38-1.309 0-2.586-.973-3.832-2.918a4.952 4.952 0 01-1.035 1.573c-.565.574-1.16.86-1.788.86h-.874v-4.1h.914c.816 0 1.35-.25 1.6-.753.126-.25.188-.685.188-1.304 0-1.03.265-1.913.794-2.648.663-.924 1.626-1.385 2.89-1.385.986 0 1.878.529 2.675 1.586l1.762 2.918c.645 1.057 1.295 1.586 1.95 1.586h1.115v4.1zm-5.324-2.797c.385 0 .578-.273.578-.82 0-.645-.242-1.452-.726-2.42-.654-1.3-1.38-1.95-2.178-1.95-.564 0-.847.377-.847 1.13 0 .672.22 1.371.659 2.097.789 1.309 1.627 1.963 2.514 1.963z" fill="#fff"></path><path d="M86.454 30.034h-.834c-.932 0-1.573-.135-1.922-.404.053.44.08.865.08 1.277 0 2.456-.833 4.307-2.5 5.553-1.488 1.12-3.496 1.68-6.023 1.68-2.151 0-3.913-.412-5.284-1.236-1.676-1.013-2.514-2.519-2.514-4.518 0-1.972.453-3.634 1.358-4.988.233-.35.48-.524.74-.524.205 0 .308.135.308.404 0 .152-.03.322-.094.51-.322.977-.484 1.847-.484 2.608 0 2.447 2.008 3.67 6.023 3.67 1.596 0 3.048-.183 4.356-.55 1.945-.547 2.918-1.39 2.918-2.528 0-.798-1.116-2.389-3.348-4.773l1.775-2.97c.143-.234.264-.35.363-.35.098 0 .22.09.363.269.735.905 1.3 1.523 1.694 1.855.726.61 1.487.914 2.285.914h.74v4.1zm-9.344-5.502c.117.117.117.233 0 .35l-1.68 1.667c-.117.116-.238.116-.364 0l-1.707-1.64c-.134-.135-.121-.283.04-.444l1.56-1.587c.143-.143.287-.143.43 0l1.72 1.654z" fill="#fff"></path></svg>